<svg width="900" height="1000" viewBox="0 0 711 2605" fill="none" xmlns="http://www.w3.org/2000/svg">
<path d="M496.688 328.152C497.665 328.804 498.76 329.217 499.6 330.147C505.273 336.432 511.183 342.329 516.465 349.292C526.53 362.558 535.778 377.081 544.54 392.335C561 420.989 575.682 451.608 589.584 483.095C601.183 509.367 612.225 536.175 622.418 563.736C630.148 584.636 637.703 605.685 645.155 626.813C658.797 665.492 670.882 705.265 682.093 745.662C689.543 772.512 696.11 799.828 701.904 827.561C705.043 842.58 707.583 857.873 709.377 873.382C710.301 881.372 711.132 889.461 710.872 897.672C710.752 901.469 710.86 905.283 710.86 909.089C710.86 1416.69 710.86 1924.3 710.859 2431.91C710.859 2437.61 710.876 2443.32 710.833 2449.03C710.692 2467.64 708.769 2485.79 704.342 2503.23C700.969 2516.51 696.404 2528.76 690.29 2539.74C678.83 2560.33 664.278 2573.99 647.713 2583.2C642.632 2586.03 637.433 2588.38 631.489 2591.02C629.408 2591.2 628.053 2590.96 627.144 2592.81C619.192 2595.63 611.144 2597.64 602.132 2599.27C599.417 2599.31 597.613 2599.22 595.831 2599.49C595.004 2599.61 594.221 2600.41 593.418 2600.91C585.784 2601.48 578.151 2602.06 569.509 2602.6C567.234 2602.55 565.968 2602.52 564.701 2602.52C425.733 2602.51 286.766 2602.51 147.798 2602.52C145.992 2602.52 144.186 2602.7 142.38 2602.79C141.56 2602.72 140.74 2602.64 139.169 2602.14C132.481 2601.5 126.543 2601.28 120.606 2601.06C110.292 2600.02 100.092 2597.77 89.2783 2594.07C87.2981 2593.33 86.0209 2593.1 84.7435 2592.87C75.7885 2589.69 67.0725 2585.47 58.6055 2580.01C45.8739 2571.79 34.3113 2560.94 24.8228 2545.7C16.4999 2532.33 10.0289 2517.12 7 2498.76C9.64946 2498.04 11.9264 2498.55 13.9549 2497.71C16.9993 2496.45 20.028 2496.64 23.0825 2496.49C24.3456 2496.43 25.7043 2496.77 26.8522 2496.18C29.8513 2494.65 32.9126 2494.98 35.9702 2494.85C37.0519 2494.8 38.1578 2494.84 39.2078 2494.52C44.8561 2492.77 50.6308 2492.78 56.3228 2491.64C60.4172 2490.82 64.5403 2490.33 68.6434 2489.6C70.4215 2489.29 72.2011 2488.87 73.9415 2488.25C74.7593 2487.96 75.4862 2487.09 76.5124 2486.71C77.274 2487.38 77.7776 2487.84 78.4498 2488.79C80.1121 2491.18 81.5978 2493.1 83.1004 2494.99C91.6958 2505.81 101.285 2513.99 112.19 2519.84C119.227 2523.02 125.799 2526.77 132.76 2528.46C139.138 2530 145.445 2532.23 151.947 2532.46C153.018 2532.5 154.082 2532.88 155.151 2533.08C156.931 2533.4 158.713 2533.97 160.494 2533.97C184.527 2534.04 208.56 2534.02 232.588 2534.04C232.584 2534.06 232.57 2534.08 232.894 2534.56C235.006 2535.25 236.795 2535.64 238.583 2535.64C337.587 2535.67 436.591 2535.66 535.595 2535.65C537.043 2535.65 538.504 2535.8 539.934 2535.55C540.768 2535.41 541.552 2534.62 542.844 2534.08C546.921 2533.53 550.512 2533.04 554.101 2532.51C558.41 2531.86 562.768 2531.61 567.013 2530.44C579.819 2526.9 592.461 2522.52 604.299 2513.87C616.132 2505.22 626.826 2494.62 635.204 2478.97C641.537 2467.14 646.354 2454.14 649.504 2439.92C653.337 2422.62 655.127 2404.65 655.329 2386.38C655.367 2382.85 655.342 2379.31 655.342 2375.78C655.343 1889.6 655.343 1403.43 655.343 917.256C655.343 915.353 655.254 913.438 655.361 911.548C655.542 908.364 654.708 905.865 653.549 903.277C649.372 893.955 644.308 885.808 638.689 878.522C635.237 874.046 631.114 871.491 626.3 871.314C619.693 871.07 613.319 872.216 607.162 875.868C602.119 878.86 597.084 881.883 592.018 884.782C586.112 888.162 580.209 891.593 573.359 892.718C567.389 892.709 561.927 892.726 556.022 892.734C550.526 890.832 545.342 889.507 540.452 886.923C531.61 882.25 523.153 876.13 514.863 869.542C510.247 865.872 505.651 862.143 500.844 858.039C499.696 856.842 498.751 856.046 498.129 854.766C498.593 852.685 498.855 851.088 498.856 849.49C498.866 825.851 498.846 802.211 498.82 778.572C498.818 776.946 498.963 775.186 498.61 773.721C497.59 769.485 497.827 765.143 497.824 760.818C497.786 714.626 497.771 668.434 497.731 622.243C497.728 619.264 497.921 616.141 497.405 613.341C496.71 609.563 496.742 605.826 496.741 602.042C496.716 510.745 496.703 419.449 496.688 328.152Z" fill="#83B4DD"/>
<path d="M76.256 2486.49C75.4878 2487.09 74.7609 2487.96 73.9431 2488.25C72.2026 2488.87 70.423 2489.28 68.6449 2489.6C64.5418 2490.33 60.4187 2490.82 56.3244 2491.64C50.6323 2492.78 44.8576 2492.77 39.2094 2494.52C38.1593 2494.84 37.0534 2494.8 35.9717 2494.85C32.9141 2494.98 29.8529 2494.65 26.8537 2496.18C25.7059 2496.77 24.3472 2496.43 23.084 2496.49C20.0296 2496.64 17.0008 2496.45 13.9564 2497.71C11.9279 2498.55 9.65098 2498.04 6.99509 2498.14C4.8428 2494.19 4.17817 2489.6 3.59673 2485.21C2.19095 2474.61 0.829324 2463.94 1.01626 2453.01C1.11384 2447.31 1.01162 2441.6 1.01162 2435.89C1.01056 1927.75 1.01066 1419.62 1.01069 911.479C1.01069 909.304 1.07799 907.124 1.00037 904.955C0.460758 889.878 2.31042 875.236 4.7816 860.774C9.18729 834.99 15.0791 809.933 21.6816 785.246C28.8928 758.284 36.6737 731.706 45.3783 705.743C47.4906 699.443 49.1922 692.829 51.3602 686.576C58.0413 667.306 64.6507 647.97 71.6746 628.981C79.4824 607.874 87.6013 587.019 95.8058 566.251C100.874 553.421 106.355 540.959 112.138 528.282C112.768 529.828 113.038 531.424 113.038 533.02C113.04 572.423 113.012 611.826 112.623 651.324C111.104 653.44 109.689 655.24 108.844 657.517C104.103 670.298 99.2067 682.98 94.9277 696.11C90.2543 710.45 85.8352 724.984 81.7761 739.78C77.7886 754.315 74.0404 768.952 70.7343 783.851C69.5397 789.235 68.5107 794.708 67.5684 800.203C67.3787 801.31 67.6671 803.207 68.2009 803.811C68.6965 804.37 69.9871 804.091 70.626 803.476C72.4393 801.729 74.1175 799.658 75.8149 797.65C85.917 785.699 96.9042 775.884 108.414 767.362C109.822 766.319 111.494 766.077 113.049 766.229C113.056 781.843 113.054 796.692 113.062 811.541C113.062 813.699 113.088 815.858 113.135 818.016C113.179 820.035 114.157 820.661 115.107 821.407C114.714 822.12 114.439 822.449 113.726 822.697C112.615 822.894 111.871 822.969 111.218 823.374C94.3769 833.82 80.1811 850 67.5323 869.369C63.4904 875.558 60.064 882.644 56.1218 888.992C53.8532 892.645 53.0354 896.485 53.041 901.451C53.1208 971.303 53.2347 1041.16 53.0284 1111.01C52.8214 1181.11 53.4881 1251.2 52.4765 1321.31C51.8258 1366.4 52.3339 1411.54 52.3262 1456.66C52.2732 1764.88 52.2288 2073.1 52.1427 2381.33C52.1392 2394.13 52.8168 2406.81 54.3955 2419.35C55.8749 2431.1 58.1402 2442.49 61.5597 2453.4C65.3744 2465.58 70.4742 2476.34 76.256 2486.49Z" fill="#B1D3EC"/>
<path d="M496.472 327.703C496.703 419.449 496.716 510.745 496.741 602.042C496.742 605.825 496.71 609.563 497.405 613.341C497.921 616.141 497.728 619.264 497.731 622.243C497.771 668.434 497.786 714.626 497.824 760.818C497.827 765.142 497.59 769.484 498.61 773.721C498.963 775.186 498.818 776.946 498.82 778.572C498.846 802.211 498.866 825.85 498.856 849.49C498.855 851.087 498.593 852.685 497.776 854.543C489.587 849.436 482.183 843.694 474.536 838.805C466.372 833.584 457.853 829.929 448.563 828.594C440.72 828.006 433.229 827.811 425.737 827.745C425.111 827.739 424.481 828.596 423.39 829.064C412.099 830.739 401.493 834.257 391.191 839.31C377.27 846.138 363.497 853.664 349.741 861.218C336.15 868.681 322.613 876.361 308.631 882.051C300.083 885.529 291.453 888.465 282.084 889.481C273.94 889.453 266.304 889.489 258.219 889.494C251.057 888.125 244.527 885.688 238.15 882.272C236.319 881.291 234.438 880.524 232.568 879.304C232.557 878.949 232.556 878.24 232.569 877.463C232.602 845.078 232.623 813.468 233.036 781.906C235.94 783.463 238.448 784.98 240.96 786.482C249.74 791.732 258.805 794.885 268.305 794.857C273.011 794.842 277.728 794.55 282.42 794.936C287.001 795.314 291.459 794.064 295.818 792.715C310.004 788.325 323.528 780.884 336.604 771.503C343.605 766.48 350.108 760.112 357.335 755.625C366.366 750.018 375.43 744.749 384.997 741.809C389.373 740.464 393.788 739.043 398.359 739.303C403.42 739.592 408.494 739.335 413.562 739.399C414.998 739.417 416.455 739.542 417.864 739.935C422.452 741.217 427.016 742.7 431.603 743.997C434.122 744.709 436.413 742.547 436.764 738.646C437.244 733.309 438.48 728.111 438.046 722.572C437.881 720.454 437.879 718.095 438.337 716.126C439.143 712.663 439.074 709.184 439.084 705.667C439.102 698.874 439.085 692.081 439.103 685.288C439.108 683.389 438.883 681.334 439.28 679.621C440.514 674.313 440.143 668.881 440.157 663.482C440.196 648.267 440.177 633.051 440.16 617.835C440.158 615.394 440.408 612.771 439.908 610.554C438.945 606.28 439.123 601.98 439.103 597.659C439.069 590.323 439.11 582.986 439.073 575.65C439.062 573.489 439.189 571.175 438.734 569.202C437.933 565.735 438.046 562.252 438.006 558.736C437.956 554.393 438.387 549.88 437.738 545.749C436.972 540.88 436.982 536.091 436.913 531.227C436.889 529.599 436.929 527.953 436.782 526.348C436.144 519.412 435.117 512.517 434.853 505.554C434.494 496.081 433.075 486.864 432.409 477.475C432.011 471.866 431.089 466.326 430.252 460.806C429.256 454.229 428.313 447.604 426.954 441.187C425.371 433.715 423.611 426.28 421.478 419.13C418.685 409.763 413.868 402.757 408.481 396.639C404.137 391.705 399.308 388.015 394.438 384.42C385.915 378.129 376.96 374.412 367.443 373.887C366.545 373.837 365.616 373.788 364.763 373.417C361.018 371.786 357.308 371.754 353.566 373.451C352.719 373.835 351.776 373.918 350.884 373.874C344.327 373.554 338.01 375.937 331.694 377.958C317.313 382.561 303.817 391.022 290.657 400.598C283.52 405.791 276.693 411.951 269.777 417.811C266.639 420.47 263.573 423.343 260.566 426.324C253.496 433.333 246.55 440.629 239.402 447.45C237.166 449.584 235.61 453.429 232.63 453.035C232.611 438.755 232.609 425.236 232.598 411.717C232.574 382.787 232.546 353.858 232.52 324.928C232.538 299.392 232.556 273.857 233.042 247.507C315.136 246.685 396.764 246.676 478.392 246.679C479.838 246.679 481.283 246.831 482.729 246.911C482.698 269.689 482.666 292.467 482.648 315.245C482.648 315.763 482.816 316.281 482.956 317.094C487.308 320.419 491.781 323.837 496.472 327.703Z" fill="#B1D3EC"/>
<path d="M232.644 781.858C232.624 813.468 232.603 845.078 232.178 877.393C225.869 873.382 219.805 869.063 214.099 863.858C204.82 855.395 195.872 846.117 186.606 837.621C177.166 828.966 167.347 821.406 156.127 817.364C154.248 816.697 152.658 816.435 151.053 816.131C151.038 816.089 150.982 816.136 150.64 815.726C145.144 815.052 139.99 814.788 134.413 814.468C132.381 814.577 130.633 813.776 129.053 815.99C128.796 816.049 128.276 816.085 127.881 816.033C126.195 816.041 124.836 815.735 123.474 817.654C120.468 818.886 117.86 819.981 115.251 821.076C114.157 820.661 113.179 820.035 113.135 818.016C113.087 815.859 113.062 813.699 113.061 811.541C113.054 796.692 113.056 781.843 113.052 765.466C113.029 726.368 113.01 688.798 112.99 651.229C113.012 611.826 113.039 572.423 113.038 533.02C113.038 531.424 112.768 529.828 112.289 527.774C117.221 515.375 122.35 503.293 127.79 491.534C134.864 476.239 142.058 461.058 149.448 446.104C154.048 436.797 159.144 428.044 163.948 418.962C168.313 410.711 173.173 403.087 177.614 394.975C184.866 381.727 193.419 370.47 201.297 358.192C203.656 354.517 206.371 351.321 209.055 348.159C213.293 343.165 217.544 338.17 221.98 333.59C225.076 330.393 228.49 327.891 232.141 325.003C232.547 353.858 232.575 382.787 232.599 411.717C232.61 425.236 232.612 438.755 232.61 453.806C232.597 562.821 232.592 670.305 232.59 777.789C232.59 779.145 232.625 780.502 232.644 781.858Z" fill="#E6F4F7"/>
<path d="M207.008 194.223C206.92 191.791 206.757 189.359 206.756 186.927C206.741 144.87 206.744 102.813 206.746 60.7553C206.747 48.8406 208.454 37.617 212.836 27.5193C218.874 13.6053 227.374 5.17291 239.137 1.9938C242.054 1.97674 244.043 1.93597 246.033 1.93587C320.563 1.93261 395.093 1.9345 469.622 1.92616C471.79 1.92591 473.958 1.82275 476.126 1.76758C476.126 1.76758 476.612 1.86268 477.152 2.26951C478.976 2.94221 480.26 3.20807 481.544 3.47392C489.145 7.13328 495.573 13.3357 500.526 22.8748C505.83 33.0912 508.598 44.6218 508.628 57.561C508.675 77.3929 508.65 97.2252 508.643 117.057C508.635 142.323 508.616 167.588 508.04 193.641C500.601 194.407 493.724 194.385 486.853 193.608C486.861 161.117 486.828 129.383 486.906 97.6487C486.916 93.437 486.432 89.6204 485.023 86.006C482.792 80.2824 476.176 77.7123 472.637 81.5481C469.452 85.0016 467.365 89.4164 467.386 95.8496C467.494 128.668 467.472 161.487 466.98 194.368C459.866 194.432 453.269 194.433 446.677 193.67C446.684 161.18 446.685 129.452 446.685 97.7248C446.685 95.8266 446.757 93.9169 446.646 92.0326C446.312 86.3969 443.612 81.6838 440.079 80.4054C435.778 78.8487 432.197 80.5835 429.916 85.2352C428.317 88.4955 428.16 92.1815 428.165 96.0564C428.21 128.868 428.199 161.681 427.697 194.502C420.296 194.509 413.403 194.507 406.516 193.735C406.523 161.237 406.525 129.51 406.522 97.7826C406.522 95.6142 406.606 93.4234 406.434 91.2822C406.057 86.5813 403.193 81.3457 400.641 80.4054C393.402 77.7374 388.137 83.9013 388.022 95.1822C388.017 95.7245 388.02 96.2669 388.02 96.8092C388.025 129.35 388.029 161.891 387.523 194.457C380.413 194.424 373.812 194.367 367.237 193.558C367.269 161.071 367.276 129.335 367.282 97.5994C367.282 96.2432 367.4 94.8522 367.243 93.5364C365.984 82.963 360.14 76.8641 352.78 81.5582C351.701 82.2464 350.695 83.736 350.028 85.2301C348.39 88.902 347.774 92.981 347.789 97.5278C347.891 129.806 347.852 162.084 347.346 194.408C340.251 194.429 333.669 194.404 327.092 193.621C327.099 161.685 327.101 130.506 327.102 99.3266C327.102 97.4288 327.201 95.513 327.064 93.6368C326.761 89.4813 325.728 85.5783 323.648 82.8832C320.802 79.1973 317.069 79.0355 313.899 80.9097C310.686 82.809 308.244 86.7447 308.59 92.8798C308.696 94.7638 308.599 96.6734 308.599 98.5712C308.599 130.564 308.599 162.556 308.095 194.545C300.702 194.518 293.815 194.494 286.934 193.704C286.943 161.399 286.946 129.86 286.944 98.3222C286.944 96.1474 287.028 93.9557 286.882 91.8011C286.497 86.1404 283.721 81.523 280.145 80.3671C273.602 78.2522 268.633 84.0999 268.433 94.1555C268.417 94.9704 268.428 95.7866 268.428 96.6023C268.435 129.228 268.441 161.854 267.938 194.492C260.538 194.51 253.647 194.516 246.761 193.75C246.766 161.241 246.768 129.503 246.765 97.7657C246.765 95.3248 246.819 92.8722 246.678 90.4476C246.602 89.1538 246.331 87.739 245.857 86.668C242.765 79.672 238.628 78.3896 233.058 81.6044C231.133 82.7152 229.947 84.9837 229.181 87.9962C228.312 91.4155 228.259 94.8597 228.26 98.3872C228.27 130.396 228.272 162.405 227.764 194.444C220.505 194.39 213.756 194.307 207.008 194.223ZM313.557 19.858C312.29 19.858 311.024 19.858 309.757 19.858C292.024 19.8583 274.291 19.8311 256.558 19.8694C246.11 19.892 240.906 28.0339 241.261 43.6517C241.273 44.1945 241.19 44.7782 241.295 45.2741C241.783 47.5701 241.99 50.2228 242.916 52.036C244.439 55.0165 246.285 57.758 248.294 59.9941C249.514 61.3516 251.268 61.8202 252.835 62.2249C254.242 62.5882 255.722 62.3271 257.169 62.3272C294.444 62.3288 331.72 62.3285 368.995 62.328C370.081 62.328 371.169 62.3963 372.252 62.3076C377.321 61.8924 381.296 58.8202 383.44 51.5715C384.171 49.1018 384.834 46.5637 385.334 43.9728C385.625 42.466 385.787 40.7118 385.573 39.207C384.109 28.8626 377.758 17.7633 370.014 19.8594C351.557 19.8589 333.101 19.8585 313.557 19.858Z" fill="#4FAFBB"/>
<path d="M367.212 194.31C373.812 194.367 380.413 194.425 387.519 194.479C388.024 194.475 388.003 194.507 388.323 194.988C394.152 195.603 399.661 195.768 405.171 195.816C405.613 195.82 406.057 195.024 406.495 194.574C406.49 194.548 406.51 194.505 406.51 194.505C413.403 194.507 420.296 194.509 427.705 194.524C428.22 194.536 428.206 194.581 428.537 195.041C434.207 195.669 439.547 195.885 444.887 195.935C445.49 195.94 446.098 195.006 446.692 194.493C446.682 194.477 446.672 194.434 446.672 194.434C453.269 194.433 459.866 194.432 467.213 194.461C467.963 194.49 468.43 194.683 468.77 195.118C474.446 195.7 479.78 195.898 485.116 195.925C485.71 195.928 486.307 194.962 486.885 194.431C486.867 194.418 486.847 194.364 486.847 194.364C493.724 194.386 500.602 194.407 507.974 194.394C508.501 210.831 508.537 227.303 508.554 243.776C508.555 244.285 508.363 244.795 508.151 245.855C507.133 246.111 505.954 246.651 504.771 246.668C497.753 246.771 490.734 246.753 483.222 246.844C481.284 246.831 479.838 246.679 478.392 246.679C396.765 246.676 315.137 246.686 232.99 246.756C224.389 246.696 216.307 246.581 208.224 246.418C207.919 246.412 207.618 245.943 207.316 245.69C207.155 245.225 206.856 244.761 206.854 244.296C206.805 228.114 206.783 211.932 206.883 194.987C213.757 194.307 220.505 194.391 227.757 194.465C228.26 194.457 228.238 194.489 228.555 194.975C234.38 195.6 239.887 195.769 245.396 195.823C245.84 195.827 246.287 195.042 246.731 194.594C246.728 194.565 246.756 194.523 246.756 194.523C253.647 194.517 260.539 194.511 267.943 194.514C268.456 194.523 268.439 194.562 268.767 195.028C274.607 195.616 280.118 195.768 285.629 195.802C286.065 195.805 286.504 194.987 286.932 194.532C286.923 194.514 286.927 194.471 286.927 194.471C293.815 194.494 300.703 194.518 308.114 194.568C308.638 194.594 308.648 194.665 308.989 195.104C314.668 195.694 320.006 195.896 325.344 195.928C325.941 195.931 326.54 194.971 327.123 194.442C327.107 194.427 327.087 194.379 327.087 194.379C333.669 194.404 340.252 194.429 347.336 194.435C347.837 194.417 347.802 194.444 348.114 194.939C353.923 195.589 359.422 195.772 364.921 195.843C365.37 195.849 365.823 195.09 366.508 194.59C366.742 194.493 367.212 194.31 367.212 194.31Z" fill="#83B4DD"/>
<path d="M142.725 2603.22C144.187 2602.7 145.993 2602.52 147.799 2602.52C286.767 2602.51 425.735 2602.51 564.702 2602.52C565.969 2602.52 567.235 2602.55 569.006 2602.68C568.693 2603.25 567.893 2603.98 567.051 2604.11C565.619 2604.34 564.16 2604.19 562.712 2604.19C424.805 2604.19 286.898 2604.19 148.991 2604.16C147.017 2604.16 145.043 2603.83 142.725 2603.22Z" fill="#DEFFFF"/>
<path d="M475.77 1.3433C473.96 1.82236 471.792 1.92552 469.624 1.92577C395.094 1.93411 320.565 1.93222 246.035 1.93548C244.045 1.93558 242.056 1.97636 239.553 1.90782C239.858 1.33487 240.657 0.557923 241.499 0.432727C243.113 0.192692 244.752 0.302353 246.38 0.302279C320.57 0.298818 394.76 0.293939 468.951 0.325107C471.104 0.326028 473.258 0.712644 475.77 1.3433Z" fill="#C5C8D0"/>
<path d="M120.953 2601.49C126.545 2601.28 132.482 2601.49 138.759 2602.15C133.166 2602.36 127.232 2602.14 120.953 2601.49Z" fill="#C8E2F1"/>
<path d="M593.883 2600.96C594.221 2600.41 595.004 2599.61 595.831 2599.48C597.613 2599.22 599.417 2599.31 601.678 2599.32C601.341 2599.88 600.558 2600.69 599.731 2600.81C597.948 2601.07 596.144 2600.97 593.883 2600.96Z" fill="#C8E2F1"/>
<path d="M481.266 3.05465C480.261 3.20768 478.976 2.94183 477.396 2.29357C478.396 2.15271 479.692 2.39427 481.266 3.05465Z" fill="#C5C8D0"/>
<path d="M627.539 2592.83C628.055 2590.96 629.41 2591.2 631.087 2591.14C630.567 2593.03 629.21 2592.76 627.539 2592.83Z" fill="#C8E2F1"/>
<path d="M85.0176 2593.28C86.0224 2593.1 87.2997 2593.33 88.8468 2593.98C87.8411 2594.16 86.5655 2593.93 85.0176 2593.28Z" fill="#C8E2F1"/>
<path d="M573.866 892.744C580.209 891.592 586.112 888.161 592.017 884.781C597.084 881.882 602.119 878.859 607.162 875.868C613.319 872.215 619.693 871.07 626.3 871.313C631.114 871.49 635.236 874.045 638.689 878.522C644.308 885.807 649.371 893.954 653.549 903.276C654.708 905.864 655.542 908.363 655.361 911.548C655.254 913.437 655.342 915.352 655.342 917.255C655.342 1403.43 655.342 1889.6 655.342 2375.78C655.342 2379.31 655.367 2382.85 655.328 2386.38C655.127 2404.65 653.337 2422.62 649.504 2439.92C646.354 2454.14 641.537 2467.14 635.204 2478.97C626.826 2494.62 616.131 2505.22 604.298 2513.87C592.461 2522.52 579.819 2526.9 567.013 2530.44C562.768 2531.61 558.41 2531.86 554.101 2532.51C550.512 2533.04 546.921 2533.53 542.334 2534.02C451.259 2534.02 361.178 2534.03 271.098 2534.04C258.256 2534.04 245.413 2534.07 232.57 2534.08C232.57 2534.08 232.584 2534.06 232.589 2533.28C232.643 2518.29 232.692 2504.09 233.222 2489.91C237.475 2490.19 241.291 2489.35 244.991 2491.36C245.963 2491.89 247.143 2491.54 248.226 2491.61C249.49 2491.69 250.864 2491.33 251.996 2491.95C254.996 2493.61 258.062 2493.14 261.121 2493.24C262.206 2493.28 263.379 2492.92 264.362 2493.41C268.423 2495.45 272.593 2494.72 276.731 2494.89C277.995 2494.94 279.372 2494.64 280.497 2495.28C283.143 2496.8 285.842 2496.44 288.541 2496.5C292.16 2496.58 295.891 2495.8 299.367 2496.88C303.341 2498.12 307.258 2497.9 311.212 2498.15C318.77 2498.64 326.395 2496.82 333.891 2499.66C334.745 2499.99 335.694 2499.75 336.599 2499.76C357.777 2499.76 378.955 2499.76 400.133 2499.74C401.576 2499.74 403.139 2500.04 404.438 2499.33C407.099 2497.88 409.791 2498.31 412.487 2498.13C421.129 2497.56 429.84 2499.57 438.418 2496.57C438.763 2496.45 439.14 2496.53 439.502 2496.52C445.803 2496.29 452.08 2496.68 458.395 2495.11C463.318 2493.89 468.417 2494.32 473.457 2493.54C480.778 2492.41 488.114 2491.47 495.436 2490.19C501.324 2489.16 507.196 2488.03 513.07 2486.85C521.105 2485.23 529.056 2483.01 536.864 2479.84C540.671 2478.3 544.434 2476.09 547.936 2473.37C552.18 2470.08 552.081 2464.62 548.043 2460.84C547.737 2460.55 547.399 2460.34 547.073 2460.11C542.336 2456.69 537.376 2454.21 532.26 2452.51C527.702 2450.99 523.114 2449.66 518.515 2448.45C512.857 2446.96 507.202 2445.15 501.495 2444.49C496.653 2443.93 491.9 2441.71 486.981 2442.58C486.632 2442.64 486.229 2442.59 485.911 2442.38C483.146 2440.57 480.225 2441.13 477.345 2441.03C476.261 2440.99 475.082 2441.27 474.113 2440.73C470.946 2438.97 467.687 2439.52 464.45 2439.4C462.642 2439.34 460.707 2439.87 459.052 2439.08C455.308 2437.29 451.526 2437.96 447.753 2437.78C445.223 2437.65 442.575 2438.25 440.192 2437.31C437.308 2436.17 434.473 2436.32 431.598 2436.13C424.221 2435.64 416.776 2437.43 409.462 2434.61C408.61 2434.28 407.659 2434.52 406.754 2434.52C381.232 2434.52 355.71 2434.51 330.188 2434.53C328.745 2434.54 327.19 2434.27 325.885 2434.97C323.401 2436.29 320.898 2436.11 318.377 2436.12C313.309 2436.16 308.24 2436.14 303.172 2436.15C302.086 2436.15 300.921 2435.81 299.928 2436.28C295.326 2438.45 290.609 2437.56 285.932 2437.78C283.949 2437.87 281.964 2438 279.99 2438.26C277.847 2438.55 275.722 2439.16 273.578 2439.37C267.111 2440.02 260.638 2440.54 254.169 2441.13C253.635 2441.18 253.116 2441.51 252.581 2441.61C250.624 2441.99 248.667 2442.38 246.702 2442.64C245.444 2442.81 244.058 2442.3 242.929 2442.91C239.581 2444.74 236.136 2444.11 232.684 2443.62C232.647 2434.11 232.652 2425.37 233.042 2416.55C240.221 2412.52 246.224 2406.36 252.284 2400.54C263.822 2389.46 275.122 2377.85 285.513 2364.3C292.324 2355.42 299.305 2346.85 305.614 2337.14C308.016 2333.44 310.479 2329.83 312.906 2326.17C314.439 2323.86 316.046 2321.64 317.467 2319.18C321.48 2312.24 325.421 2305.2 329.376 2298.18C331.821 2293.85 334.348 2289.6 336.645 2285.09C340.477 2277.58 344.294 2270.03 347.865 2262.24C353.998 2248.85 360.072 2235.4 365.906 2221.72C369.307 2213.74 372.212 2205.28 375.31 2197.02C378.673 2188.04 382.16 2179.16 385.297 2170.01C388.272 2161.33 390.72 2152.25 393.658 2143.54C398.317 2129.73 402.318 2115.5 406.104 2101.14C410.75 2083.51 415.322 2065.83 419.588 2047.99C425.441 2023.51 430.327 1998.57 435.132 1973.58C439.381 1951.49 443.198 1929.24 446.719 1906.87C449.655 1888.22 452.458 1869.51 455.129 1850.77C456.859 1838.63 458.219 1826.38 459.797 1814.19C461.099 1804.13 462.548 1794.11 463.804 1784.04C465.059 1773.96 466.204 1763.86 467.306 1753.74C468.176 1745.75 468.877 1737.73 469.71 1729.73C470.709 1720.15 471.785 1710.58 472.793 1701C473.297 1696.2 473.693 1691.38 474.192 1686.58C474.774 1680.99 475.511 1675.44 476.006 1669.83C476.524 1663.95 476.633 1657.97 477.286 1652.13C478.209 1643.87 479.088 1635.62 479.351 1627.25C479.385 1626.18 479.645 1625.13 479.743 1624.07C480.329 1617.66 480.969 1611.26 481.455 1604.83C481.962 1598.13 481.839 1591.23 482.856 1584.72C484.064 1576.99 483.755 1569.14 484.524 1561.38C485.311 1553.45 486.501 1545.36 485.882 1537.17C485.843 1536.64 485.883 1536.04 486.028 1535.56C487.133 1531.96 486.87 1528.12 486.918 1524.33C486.939 1522.7 486.76 1520.93 487.128 1519.48C488.267 1514.99 487.928 1510.37 488.002 1505.78C488.033 1503.88 487.797 1501.82 488.203 1500.11C489.335 1495.34 489.01 1490.46 489.093 1485.6C489.125 1483.7 488.923 1481.63 489.355 1479.94C490.373 1475.97 490.109 1471.91 490.171 1467.86C490.212 1465.15 489.846 1462.25 490.357 1459.75C491.508 1454.13 491.172 1448.46 491.259 1442.79C491.289 1440.89 491.012 1438.83 491.396 1437.11C492.759 1431 492.199 1424.74 492.359 1418.53C492.429 1415.83 492.598 1413.13 492.779 1410.44C492.959 1407.76 493.321 1405.1 493.41 1402.42C493.669 1394.59 492.835 1386.68 494.429 1378.96C494.738 1377.46 494.513 1375.71 494.516 1374.08C494.523 1369.46 494.487 1364.84 494.537 1360.22C494.56 1358.06 494.709 1355.9 494.858 1353.74C495.08 1350.53 495.514 1347.33 495.57 1344.11C495.685 1337.59 495.597 1331.06 495.617 1324.54C495.624 1322.64 495.418 1320.58 495.828 1318.87C496.91 1314.37 496.665 1309.77 496.684 1305.17C496.715 1297.56 496.687 1289.95 496.704 1282.33C496.708 1280.43 496.488 1278.38 496.892 1276.67C498.082 1271.63 497.747 1266.47 497.766 1261.33C497.806 1249.92 497.762 1238.5 497.802 1227.08C497.81 1224.65 497.998 1222.22 498.156 1219.8C498.364 1216.58 498.822 1213.37 498.83 1210.16C498.891 1184.6 498.861 1159.05 498.888 1133.5C498.891 1130.79 499.033 1128.08 499.199 1125.39C499.398 1122.17 499.911 1118.97 499.913 1115.76C499.957 1055.13 499.947 994.51 499.94 933.886C499.939 931.715 500.18 929.374 499.732 927.408C498.642 922.616 498.893 917.749 498.884 912.885C498.856 897.661 498.865 882.437 498.874 867.213C498.875 865.042 498.846 862.849 499.034 860.706C499.168 859.181 500.122 858.702 501.046 858.44C505.651 862.142 510.246 865.872 514.863 869.541C523.153 876.129 531.609 882.249 540.452 886.922C545.342 889.506 550.526 890.832 556.362 893.174C562.103 893.809 567.059 894.045 572.017 894.111C572.631 894.119 573.25 893.221 573.866 892.744ZM498.304 2212.81C496.418 2209.88 494.594 2206.86 492.637 2204.04C481.909 2188.58 469.259 2182.96 454.787 2188.39C447.531 2191.11 440.946 2196.27 435.496 2204.22C429.646 2212.75 425.859 2223.04 423.886 2234.9C422.415 2243.75 422.348 2252.5 423.804 2261.4C426.654 2278.81 433.429 2291.81 443.883 2299.88C453.61 2307.38 464.067 2309.39 474.922 2305.71C480.62 2303.78 485.998 2300.84 490.863 2296.04C493.865 2293.07 497.073 2290.32 499.266 2285.9C501.963 2280.47 504.389 2274.74 505.833 2268.24C507.753 2259.58 508.162 2250.78 506.955 2241.82C505.576 2231.57 502.803 2222.26 498.304 2212.81ZM576.601 1241.79C575.717 1243.16 574.716 1244.39 573.968 1245.9C569.827 1254.27 569.223 1263.33 572.21 1272.67C575.474 1282.88 581.703 1287.04 588.598 1287.17C595.354 1287.3 601.164 1282.45 605.016 1273.66C605.862 1271.72 606.242 1269.15 606.43 1266.79C606.665 1263.85 606.585 1260.82 606.436 1257.84C606.343 1256 606.076 1254.04 605.525 1252.4C604.052 1248.03 602.335 1243.75 599.661 1240.86C597.644 1238.68 595.356 1236.25 593.01 1235.72C587.418 1234.45 581.766 1234.54 576.601 1241.79ZM539.285 2210.82C541.089 2210.9 542.909 2210.77 544.693 2211.09C549.098 2211.88 552.754 2209.1 556.449 2206.12C560.779 2202.63 563.752 2189.79 562.661 2184.19C561.376 2177.59 559.488 2171.63 555.983 2166.88C550.759 2159.8 542.65 2157.91 536.312 2162.42C533.264 2164.59 530.847 2167.9 529.007 2171.87C526.105 2178.13 524.911 2185.42 526.647 2192.71C528.659 2201.16 532.461 2207.56 539.285 2210.82Z" fill="#4268AF"/>
<path d="M500.844 858.039C500.123 858.702 499.169 859.181 499.035 860.706C498.847 862.849 498.876 865.042 498.875 867.214C498.866 882.437 498.857 897.661 498.885 912.885C498.894 917.749 498.643 922.616 499.733 927.408C500.18 929.374 499.94 931.715 499.94 933.886C499.948 994.51 499.958 1055.13 499.914 1115.76C499.912 1118.97 499.399 1122.17 499.2 1125.39C499.033 1128.08 498.891 1130.79 498.889 1133.5C498.861 1159.05 498.891 1184.6 498.83 1210.16C498.823 1213.37 498.365 1216.58 498.156 1219.8C497.999 1222.22 497.811 1224.65 497.802 1227.08C497.763 1238.5 497.807 1249.92 497.766 1261.33C497.748 1266.47 498.082 1271.63 496.892 1276.67C496.489 1278.38 496.709 1280.44 496.705 1282.33C496.688 1289.95 496.716 1297.56 496.685 1305.17C496.666 1309.77 496.91 1314.37 495.828 1318.87C495.419 1320.58 495.624 1322.64 495.618 1324.54C495.597 1331.06 495.686 1337.59 495.571 1344.11C495.514 1347.33 495.081 1350.53 494.859 1353.74C494.71 1355.9 494.561 1358.06 494.538 1360.22C494.488 1364.84 494.524 1369.46 494.516 1374.08C494.514 1375.71 494.738 1377.46 494.43 1378.96C492.836 1386.68 493.67 1394.59 493.411 1402.42C493.322 1405.1 492.96 1407.76 492.779 1410.44C492.599 1413.13 492.43 1415.83 492.36 1418.53C492.199 1424.74 492.76 1431 491.397 1437.11C491.013 1438.83 491.29 1440.89 491.26 1442.79C491.172 1448.46 491.508 1454.13 490.358 1459.75C489.847 1462.25 490.212 1465.15 490.171 1467.86C490.11 1471.91 490.373 1475.97 489.356 1479.94C488.924 1481.63 489.126 1483.7 489.093 1485.6C489.011 1490.46 489.335 1495.34 488.203 1500.11C487.798 1501.82 488.033 1503.88 488.003 1505.78C487.928 1510.37 488.268 1514.99 487.128 1519.48C486.76 1520.93 486.94 1522.7 486.919 1524.33C486.87 1528.12 487.134 1531.96 486.028 1535.56C485.884 1536.04 485.843 1536.65 485.883 1537.17C486.501 1545.36 485.311 1553.45 484.525 1561.38C483.755 1569.14 484.065 1576.99 482.857 1584.72C481.839 1591.23 481.962 1598.13 481.456 1604.83C480.97 1611.26 480.33 1617.66 479.743 1624.07C479.645 1625.13 479.386 1626.18 479.352 1627.25C479.089 1635.62 478.209 1643.87 477.287 1652.13C476.634 1657.97 476.525 1663.95 476.006 1669.83C475.512 1675.44 474.775 1680.99 474.193 1686.58C473.694 1691.38 473.298 1696.2 472.793 1701C471.786 1710.58 470.709 1720.15 469.711 1729.73C468.878 1737.73 468.176 1745.75 467.306 1753.74C466.204 1763.86 465.06 1773.96 463.804 1784.04C462.549 1794.11 461.1 1804.13 459.797 1814.19C458.219 1826.38 456.86 1838.63 455.13 1850.77C452.458 1869.51 449.656 1888.22 446.72 1906.87C443.199 1929.24 439.382 1951.49 435.133 1973.58C430.327 1998.57 425.442 2023.51 419.589 2047.99C415.323 2065.83 410.751 2083.51 406.104 2101.14C402.318 2115.5 398.317 2129.73 393.659 2143.54C390.721 2152.25 388.273 2161.33 385.298 2170.01C382.16 2179.16 378.674 2188.04 375.31 2197.02C372.213 2205.28 369.308 2213.74 365.907 2221.72C360.072 2235.4 353.999 2248.85 347.865 2262.24C344.294 2270.03 340.477 2277.58 336.646 2285.09C334.348 2289.6 331.821 2293.85 329.377 2298.18C325.422 2305.2 321.481 2312.24 317.468 2319.18C316.047 2321.64 314.44 2323.86 312.907 2326.17C310.479 2329.83 308.017 2333.44 305.615 2337.14C299.306 2346.85 292.324 2355.42 285.514 2364.3C275.123 2377.85 263.823 2389.46 252.284 2400.54C246.225 2406.36 240.222 2412.52 233.017 2415.78C232.599 2395.24 232.587 2375.4 232.587 2355.56C232.584 1863.59 232.582 1371.63 232.58 879.658C234.438 880.523 236.32 881.291 238.151 882.271C244.527 885.687 251.058 888.125 258.564 889.924C266.639 891.782 273.937 891.166 281.23 890.712C281.694 890.683 282.139 889.95 282.593 889.544C291.453 888.464 300.083 885.528 308.631 882.05C322.613 876.361 336.151 868.681 349.741 861.218C363.498 853.663 377.271 846.138 391.192 839.309C401.494 834.256 412.1 830.739 423.901 829.118C432.887 829.113 440.901 829.066 448.915 829.02C457.853 829.929 466.373 833.584 474.537 838.804C482.183 843.693 489.588 849.435 497.453 855.026C498.752 856.045 499.697 856.841 500.844 858.039ZM388.207 1663.55C386.103 1664.26 383.94 1664.72 381.905 1665.75C372.207 1670.64 364.177 1678.72 358.604 1692.08C352.535 1706.64 350.361 1722.03 353.318 1738.68C356.206 1754.94 362.681 1767.11 372.556 1775.26C379.053 1780.62 386.159 1782.19 393.342 1783.36C394.741 1783.59 396.204 1783.04 397.63 1782.76C398.521 1782.59 399.39 1782.11 400.281 1782.01C407.307 1781.24 413.63 1777.25 419.549 1771.94C422.776 1769.04 425.86 1765.58 428.312 1761.14C435.527 1748.09 437.375 1732.7 435.447 1716.7C433.889 1703.78 429.754 1692.01 423.38 1682.69C413.901 1668.83 402.694 1661.15 388.207 1663.55ZM317.445 1615.18C316.74 1618.24 315.542 1621.25 315.415 1624.37C314.848 1638.33 321.758 1649.65 329.961 1651.31C332.444 1651.81 335.05 1651.81 337.531 1651.3C345.684 1649.62 352.61 1640.86 352.045 1626.54C351.611 1615.54 346.876 1605.58 339.446 1601.36C337.462 1600.23 335.163 1599.15 333.148 1599.57C326.68 1600.91 320.966 1604.58 317.445 1615.18Z" fill="#4D7ABD"/>
<path d="M232.569 879.304C232.583 1371.63 232.585 1863.59 232.588 2355.56C232.588 2375.4 232.6 2395.24 232.632 2415.86C232.653 2425.37 232.649 2434.11 232.637 2444.37C232.668 2460.56 232.705 2475.22 232.742 2489.88C232.693 2504.09 232.645 2518.29 232.595 2533.26C208.561 2534.02 184.529 2534.04 160.496 2533.97C158.714 2533.97 156.933 2533.4 155.153 2533.08C154.083 2532.88 153.019 2532.5 151.948 2532.46C145.447 2532.23 139.139 2530 132.761 2528.46C125.8 2526.77 119.228 2523.02 112.531 2519.37C112.748 2516.37 113.028 2514.28 113.034 2512.18C113.068 2500.98 113.033 2489.78 113.029 2477.81C113.038 2372.12 113.041 2267.2 113.043 2162.28C113.045 1992.95 113.046 1823.61 113.054 1654.27C113.054 1651.28 112.727 1648.11 113.275 1645.35C114.289 1640.25 114.094 1635.14 114.095 1630.01C114.109 1444.63 114.105 1259.26 114.11 1073.88C114.112 990.163 114.127 906.445 114.136 822.728C114.439 822.449 114.714 822.119 115.107 821.407C117.86 819.981 120.468 818.886 123.866 817.723C125.949 817.58 127.278 817.688 128.277 816.084C128.277 816.084 128.797 816.049 129.498 816.067C131.68 816.004 133.161 815.922 135.154 815.913C140.772 816.037 145.877 816.086 150.982 816.136C150.982 816.136 151.038 816.088 151.333 816.555C153.224 817.271 154.819 817.52 156.415 817.769C167.347 821.406 177.167 828.965 186.606 837.621C195.872 846.117 204.82 855.395 214.099 863.858C219.805 869.063 225.87 873.382 232.165 878.169C232.558 878.239 232.558 878.949 232.569 879.304ZM202.715 1206.05C198.702 1199.57 194.008 1194.63 188.269 1192.32C185.507 1191.21 182.601 1189.74 179.84 1190.05C174.254 1190.66 168.813 1192.98 164.143 1197.9C160.443 1201.79 157.166 1206.45 154.878 1212.47C152.132 1219.7 150.741 1227.3 150.997 1235.76C151.289 1245.43 153.701 1253.57 157.741 1260.83C163.771 1271.67 172.199 1274.36 180.898 1276.01C181.751 1276.17 182.666 1275.63 183.548 1275.38C184.43 1275.13 185.299 1274.69 186.187 1274.58C194.044 1273.62 200.337 1267.88 205.176 1259.1C209.952 1250.43 211.836 1240.33 210.042 1228.79C208.778 1220.66 206.527 1213.49 202.715 1206.05ZM157.612 2132.25C155.852 2138.58 157.126 2144.34 158.992 2150.08C161.496 2157.8 165.701 2162.23 171.15 2163.41C176.168 2164.5 181.13 2163.98 185.783 2159.8C190.716 2155.36 193.205 2149.34 193.535 2140.7C193.781 2134.25 192.009 2129.01 189.923 2124.01C186.742 2116.38 181.595 2112.01 175.916 2111.86C169.248 2111.69 163.217 2115.68 159.611 2125.12C158.895 2126.99 158.367 2129.03 157.612 2132.25ZM146.594 1125.51C146.047 1127.5 145.163 1129.45 145.022 1131.5C144.708 1136.06 144.169 1140.88 144.825 1145.21C145.66 1150.74 147.828 1155.65 151.26 1158.77C154.873 1162.05 158.647 1163.9 163.044 1163.73C168.871 1163.49 173.487 1160.02 177.436 1154.05C178.288 1152.76 178.953 1151.01 179.369 1149.29C182.269 1137.28 179.788 1123.68 171.559 1116.18C168.771 1113.63 165.674 1111.08 162.438 1111.59C156.23 1112.58 150.327 1115.19 146.594 1125.51ZM133.02 1334.73C134.762 1337.04 136.088 1340.02 138.415 1341.38C143.563 1344.4 148.435 1343.21 152.93 1339.01C158.346 1333.95 159.749 1326.37 157.834 1317.09C156.898 1312.56 154.612 1309.94 152.57 1306.99C147.777 1300.06 140.295 1300.15 135.426 1306.94C134.499 1308.23 133.492 1309.49 132.791 1311.03C131.891 1313.02 130.775 1315.21 130.613 1317.45C130.207 1323.06 129.725 1328.9 133.02 1334.73Z" fill="#5795D0"/>
<path d="M113.726 822.696C114.127 906.445 114.112 990.163 114.11 1073.88C114.105 1259.26 114.109 1444.63 114.095 1630.01C114.094 1635.14 114.289 1640.25 113.275 1645.35C112.727 1648.11 113.054 1651.28 113.054 1654.27C113.046 1823.61 113.045 1992.95 113.043 2162.28C113.041 2267.2 113.038 2372.12 112.577 2477.81C111.582 2478.6 111.023 2478.49 110.512 2478.68C102.381 2481.62 94.1207 2483.4 85.865 2485.32C83.3522 2485.9 80.51 2485.66 78.2825 2488.3C77.779 2487.84 77.2754 2487.38 76.5138 2486.7C70.474 2476.34 65.3743 2465.58 61.5596 2453.4C58.14 2442.49 55.8747 2431.1 54.3954 2419.35C52.8166 2406.81 52.139 2394.13 52.1426 2381.33C52.2286 2073.1 52.2731 1764.88 52.326 1456.66C52.3338 1411.54 51.8256 1366.4 52.4763 1321.31C53.4879 1251.2 52.8212 1181.11 53.0283 1111.01C53.2346 1041.16 53.1207 971.303 53.0409 901.45C53.0352 896.485 53.853 892.645 56.1217 888.992C60.0639 882.644 63.4903 875.558 67.5321 869.369C80.1809 850 94.3767 833.819 111.218 823.373C111.871 822.968 112.615 822.894 113.726 822.696Z" fill="#4D7ABD"/>
<path d="M78.4512 2488.79C80.5099 2485.66 83.3522 2485.9 85.865 2485.32C94.1206 2483.4 102.381 2481.62 110.512 2478.68C111.023 2478.49 111.582 2478.6 112.57 2478.57C113.033 2489.77 113.068 2500.98 113.035 2512.18C113.028 2514.28 112.748 2516.37 112.254 2518.93C101.286 2513.99 91.6972 2505.81 83.1017 2494.99C81.5991 2493.1 80.1134 2491.18 78.4512 2488.79Z" fill="#4268AF"/>
<path d="M232.895 2534.56C245.414 2534.07 258.256 2534.04 271.099 2534.04C361.179 2534.03 451.259 2534.02 541.849 2534.06C541.552 2534.62 540.768 2535.41 539.934 2535.55C538.504 2535.8 537.043 2535.65 535.595 2535.65C436.591 2535.66 337.587 2535.67 238.583 2535.64C236.795 2535.64 235.007 2535.25 232.895 2534.56Z" fill="#5FA7D5"/>
<path d="M573.36 892.717C573.251 893.222 572.632 894.12 572.018 894.111C567.061 894.045 562.104 893.809 556.807 893.184C561.928 892.726 567.39 892.708 573.36 892.717Z" fill="#719ACE"/>
<path d="M112.623 651.324C113.01 688.798 113.029 726.368 113.046 764.7C111.493 766.076 109.822 766.319 108.413 767.362C96.904 775.884 85.9168 785.699 75.8147 797.649C74.1173 799.658 72.439 801.729 70.6257 803.475C69.9869 804.091 68.6963 804.37 68.2007 803.81C67.6668 803.207 67.3785 801.31 67.5682 800.203C68.5105 794.708 69.5395 789.234 70.734 783.851C74.0402 768.952 77.7884 754.314 81.7759 739.78C85.8349 724.984 90.254 710.45 94.9275 696.109C99.2064 682.979 104.103 670.298 108.844 657.517C109.689 655.24 111.104 653.44 112.623 651.324Z" fill="#C8E2F1"/>
<path d="M233.037 781.905C232.625 780.501 232.59 779.145 232.59 777.788C232.592 670.304 232.596 562.821 232.622 454.566C235.61 453.428 237.167 449.584 239.403 447.45C246.551 440.628 253.496 433.332 260.566 426.324C263.574 423.342 266.64 420.47 269.778 417.811C276.693 411.951 283.521 405.791 290.657 400.598C303.818 391.021 317.314 382.56 331.695 377.958C338.01 375.937 344.327 373.553 350.884 373.874C351.777 373.918 352.719 373.835 353.566 373.451C357.308 371.753 361.019 371.786 364.764 373.416C365.616 373.788 366.546 373.837 367.443 373.886C376.961 374.412 385.915 378.129 394.439 384.42C399.309 388.014 404.138 391.705 408.482 396.639C413.869 402.757 418.685 409.763 421.479 419.13C423.611 426.279 425.372 433.715 426.955 441.187C428.314 447.603 429.256 454.228 430.253 460.806C431.089 466.326 432.012 471.866 432.41 477.474C433.075 486.864 434.495 496.08 434.854 505.553C435.118 512.516 436.145 519.412 436.783 526.348C436.93 527.953 436.89 529.599 436.913 531.227C436.982 536.09 436.973 540.88 437.738 545.749C438.388 549.879 437.956 554.392 438.006 558.736C438.047 562.251 437.934 565.735 438.734 569.201C439.19 571.175 439.063 573.488 439.074 575.65C439.11 582.986 439.069 590.322 439.104 597.658C439.124 601.98 438.946 606.279 439.909 610.553C440.408 612.771 440.158 615.394 440.161 617.834C440.178 633.05 440.197 648.266 440.158 663.482C440.144 668.881 440.514 674.313 439.281 679.621C438.883 681.333 439.108 683.389 439.103 685.288C439.086 692.081 439.103 698.874 439.085 705.666C439.075 709.183 439.144 712.662 438.338 716.126C437.88 718.095 437.881 720.454 438.047 722.572C438.48 728.111 437.245 733.308 436.765 738.646C436.414 742.546 434.122 744.709 431.603 743.997C427.016 742.7 422.453 741.217 417.864 739.935C416.456 739.541 414.998 739.416 413.562 739.398C408.494 739.334 403.42 739.592 398.359 739.303C393.789 739.042 389.373 740.464 384.997 741.809C375.431 744.749 366.366 750.017 357.336 755.624C350.108 760.112 343.606 766.48 336.605 771.503C323.529 780.883 310.005 788.325 295.819 792.714C291.459 794.063 287.001 795.313 282.421 794.936C277.729 794.55 273.011 794.842 268.305 794.856C258.806 794.885 249.741 791.731 240.96 786.481C238.448 784.98 235.94 783.463 233.037 781.905Z" fill="#C8E2F1"/>
<path d="M448.564 828.594C440.901 829.067 432.887 829.114 424.363 829.106C424.482 828.596 425.112 827.74 425.738 827.745C433.23 827.812 440.721 828.006 448.564 828.594Z" fill="#719ACE"/>
<path d="M282.085 889.481C282.14 889.95 281.695 890.683 281.231 890.712C273.938 891.166 266.64 891.783 259.014 889.956C266.305 889.489 273.941 889.453 282.085 889.481Z" fill="#81AADB"/>
<path d="M150.639 815.727C145.877 816.087 140.771 816.037 135.204 815.586C134.742 815.184 134.836 814.523 134.836 814.523C139.99 814.788 145.143 815.052 150.639 815.727Z" fill="#81AADB"/>
<path d="M134.412 814.468C134.835 814.523 134.741 815.184 134.691 815.512C133.16 815.922 131.679 816.004 129.754 816.008C130.632 813.776 132.38 814.577 134.412 814.468Z" fill="#C5C8D0"/>
<path d="M156.126 817.364C154.819 817.52 153.223 817.271 151.348 816.598C152.658 816.435 154.248 816.697 156.126 817.364Z" fill="#81AADB"/>
<path d="M127.88 816.032C127.277 817.689 125.949 817.58 124.264 817.587C124.836 815.735 126.195 816.041 127.88 816.032Z" fill="#C5C8D0"/>
<path d="M314.101 19.8583C333.102 19.8588 351.558 19.8593 370.015 19.8597C377.759 17.7636 384.11 28.8629 385.574 39.2073C385.787 40.7121 385.626 42.4663 385.335 43.9731C384.834 46.564 384.172 49.1021 383.441 51.5718C381.297 58.8205 377.322 61.8927 372.253 62.3079C371.17 62.3966 370.082 62.3283 368.996 62.3283C331.721 62.3288 294.445 62.3291 257.17 62.3275C255.723 62.3275 254.243 62.5885 252.836 62.2252C251.269 61.8205 249.515 61.3519 248.295 59.9944C246.286 57.7583 244.44 55.0168 242.917 52.0363C241.991 50.2231 241.784 47.5704 241.296 45.2744C241.191 44.7785 241.274 44.1948 241.262 43.652C240.907 28.0342 246.111 19.8923 256.559 19.8697C274.292 19.8314 292.025 19.8587 309.758 19.8584C311.025 19.8583 312.291 19.8584 314.101 19.8583Z" fill="#79C3CC"/>
<path d="M468.43 194.683C468.43 194.683 467.964 194.489 467.73 194.397C467.473 161.487 467.495 128.668 467.387 95.8498C467.366 89.4166 469.453 85.0018 472.638 81.5483C476.177 77.7125 482.793 80.2826 485.024 86.0062C486.433 89.6206 486.917 93.4372 486.907 97.6489C486.829 129.383 486.862 161.118 486.854 193.608C486.847 194.364 486.868 194.418 486.378 194.43C480.069 194.522 474.25 194.603 468.43 194.683Z" fill="#3A7E84"/>
<path d="M367.238 193.558C367.212 194.309 366.743 194.493 366.003 194.517C359.442 194.508 353.623 194.476 347.803 194.444C347.803 194.444 347.837 194.417 347.848 194.39C347.853 162.085 347.891 129.806 347.789 97.528C347.775 92.9811 348.391 88.9022 350.029 85.2303C350.696 83.7362 351.702 82.2466 352.781 81.5584C360.141 76.8642 365.985 82.9632 367.244 93.5366C367.401 94.8523 367.283 96.2434 367.282 97.5995C367.277 129.336 367.27 161.072 367.238 193.558Z" fill="#3A7E84"/>
<path d="M428.213 194.514C428.2 161.68 428.211 128.868 428.166 96.0559C428.161 92.181 428.318 88.495 429.917 85.2348C432.198 80.583 435.779 78.8482 440.08 80.4049C443.613 81.6833 446.313 86.3964 446.647 92.0321C446.758 93.9164 446.686 95.8262 446.686 97.7243C446.686 129.452 446.685 161.179 446.678 193.67C446.673 194.433 446.682 194.476 446.185 194.478C439.86 194.514 434.033 194.547 428.207 194.58C428.207 194.58 428.221 194.535 428.213 194.514Z" fill="#3A7E84"/>
<path d="M388.03 194.453C388.031 161.891 388.026 129.35 388.022 96.8089C388.022 96.2665 388.018 95.7241 388.024 95.1819C388.139 83.9009 393.403 77.7371 400.643 80.405C403.194 81.3453 406.059 86.5809 406.436 91.2818C406.608 93.423 406.523 95.6139 406.523 97.7822C406.527 129.51 406.525 161.237 406.517 193.735C406.511 194.505 406.49 194.548 405.987 194.532C399.657 194.513 393.831 194.509 388.004 194.506C388.004 194.506 388.025 194.474 388.03 194.453Z" fill="#3A7E84"/>
<path d="M228.269 194.435C228.273 162.405 228.271 130.396 228.261 98.3871C228.26 94.8596 228.313 91.4154 229.182 87.9962C229.948 84.9836 231.134 82.7151 233.059 81.6043C238.629 78.3895 242.766 79.6719 245.858 86.6679C246.332 87.739 246.603 89.1537 246.679 90.4475C246.82 92.8721 246.766 95.3247 246.766 97.7656C246.769 129.503 246.767 161.241 246.762 193.75C246.757 194.522 246.729 194.564 246.223 194.544C239.891 194.512 234.065 194.501 228.238 194.489C228.238 194.489 228.261 194.456 228.269 194.435Z" fill="#3A7E84"/>
<path d="M308.621 194.571C308.601 162.556 308.6 130.564 308.6 98.5714C308.6 96.6736 308.697 94.7641 308.591 92.8801C308.245 86.7449 310.688 82.8092 313.9 80.9099C317.07 79.0357 320.803 79.1975 323.649 82.8835C325.73 85.5785 326.762 89.4815 327.065 93.637C327.202 95.5132 327.103 97.429 327.103 99.3268C327.103 130.506 327.101 161.685 327.094 193.622C327.088 194.379 327.109 194.427 326.616 194.439C320.299 194.523 314.474 194.594 308.65 194.665C308.65 194.665 308.64 194.594 308.621 194.571Z" fill="#3A7E84"/>
<path d="M268.453 194.501C268.442 161.854 268.436 129.228 268.43 96.6023C268.43 95.7866 268.418 94.9704 268.434 94.1554C268.635 84.0999 273.604 78.2521 280.147 80.3671C283.723 81.5229 286.499 86.1404 286.883 91.8011C287.03 93.9556 286.946 96.1474 286.946 98.3221C286.947 129.86 286.945 161.399 286.936 193.704C286.928 194.47 286.924 194.514 286.424 194.506C280.097 194.52 274.269 194.541 268.44 194.562C268.44 194.562 268.457 194.523 268.453 194.501Z" fill="#3A7E84"/>
<path d="M348.113 194.939C353.622 194.476 359.442 194.508 365.768 194.613C365.822 195.09 365.369 195.849 364.92 195.843C359.421 195.772 353.923 195.588 348.113 194.939Z" fill="#5FA7D5"/>
<path d="M228.555 194.974C234.064 194.5 239.89 194.512 246.225 194.573C246.287 195.041 245.84 195.826 245.396 195.822C239.887 195.768 234.38 195.599 228.555 194.974Z" fill="#5FA7D5"/>
<path d="M268.768 195.028C274.268 194.541 280.096 194.52 286.432 194.525C286.504 194.987 286.066 195.805 285.63 195.802C280.118 195.768 274.607 195.616 268.768 195.028Z" fill="#5FA7D5"/>
<path d="M308.99 195.103C314.474 194.594 320.299 194.523 326.631 194.454C326.541 194.97 325.942 195.931 325.345 195.927C320.007 195.895 314.669 195.693 308.99 195.103Z" fill="#5FA7D5"/>
<path d="M388.322 194.987C393.829 194.51 399.656 194.513 405.991 194.558C406.057 195.024 405.612 195.82 405.171 195.816C399.661 195.767 394.151 195.603 388.322 194.987Z" fill="#5FA7D5"/>
<path d="M428.537 195.041C434.033 194.547 439.86 194.514 446.195 194.494C446.098 195.006 445.491 195.94 444.887 195.934C439.547 195.885 434.208 195.669 428.537 195.041Z" fill="#5FA7D5"/>
<path d="M468.771 195.118C474.251 194.602 480.07 194.522 486.397 194.443C486.309 194.961 485.712 195.928 485.117 195.925C479.782 195.898 474.447 195.7 468.771 195.118Z" fill="#5FA7D5"/>
<path d="M233.224 2489.91C232.705 2475.22 232.668 2460.56 232.679 2445.14C236.138 2444.11 239.582 2444.74 242.93 2442.91C244.059 2442.3 245.445 2442.81 246.704 2442.64C248.668 2442.38 250.626 2441.99 252.583 2441.61C253.118 2441.51 253.637 2441.18 254.171 2441.13C260.64 2440.54 267.113 2440.02 273.579 2439.37C275.724 2439.16 277.849 2438.55 279.991 2438.26C281.966 2438 283.951 2437.88 285.934 2437.78C290.61 2437.57 295.327 2438.45 299.93 2436.28C300.923 2435.81 302.088 2436.15 303.174 2436.15C308.242 2436.14 313.311 2436.16 318.379 2436.12C320.9 2436.11 323.403 2436.29 325.886 2434.97C327.191 2434.27 328.747 2434.54 330.19 2434.53C355.712 2434.51 381.234 2434.52 406.756 2434.52C407.661 2434.52 408.612 2434.28 409.463 2434.61C416.778 2437.43 424.223 2435.64 431.6 2436.13C434.475 2436.32 437.31 2436.17 440.193 2437.31C442.577 2438.25 445.224 2437.65 447.754 2437.78C451.528 2437.96 455.309 2437.29 459.054 2439.08C460.709 2439.87 462.644 2439.34 464.451 2439.4C467.689 2439.52 470.948 2438.97 474.115 2440.73C475.084 2441.27 476.263 2440.99 477.347 2441.03C480.226 2441.13 483.148 2440.57 485.913 2442.38C486.231 2442.59 486.634 2442.65 486.982 2442.58C491.902 2441.71 496.654 2443.93 501.496 2444.49C507.204 2445.15 512.859 2446.97 518.516 2448.45C523.115 2449.66 527.704 2450.99 532.262 2452.51C537.378 2454.21 542.337 2456.69 547.074 2460.11C547.401 2460.34 547.739 2460.55 548.045 2460.84C552.082 2464.62 552.181 2470.08 547.938 2473.37C544.436 2476.09 540.673 2478.3 536.866 2479.84C529.058 2483.01 521.106 2485.23 513.071 2486.85C507.197 2488.03 501.326 2489.17 495.438 2490.19C488.116 2491.47 480.78 2492.41 473.459 2493.54C468.419 2494.32 463.32 2493.89 458.397 2495.11C452.082 2496.68 445.805 2496.29 439.504 2496.52C439.142 2496.53 438.765 2496.45 438.42 2496.57C429.842 2499.57 421.13 2497.56 412.488 2498.14C409.793 2498.31 407.1 2497.88 404.439 2499.33C403.141 2500.04 401.578 2499.74 400.134 2499.74C378.956 2499.76 357.778 2499.76 336.601 2499.76C335.696 2499.76 334.746 2499.99 333.893 2499.66C326.397 2496.82 318.772 2498.64 311.213 2498.15C307.26 2497.9 303.343 2498.12 299.369 2496.88C295.893 2495.8 292.161 2496.58 288.543 2496.5C285.844 2496.44 283.145 2496.8 280.498 2495.28C279.373 2494.64 277.996 2494.94 276.733 2494.89C272.595 2494.72 268.425 2495.45 264.364 2493.41C263.381 2492.92 262.208 2493.28 261.122 2493.24C258.064 2493.14 254.998 2493.61 251.998 2491.96C250.866 2491.33 249.492 2491.69 248.228 2491.61C247.144 2491.55 245.965 2491.89 244.993 2491.36C241.293 2489.35 237.477 2490.19 233.224 2489.91Z" fill="#3156A4"/>
<path d="M498.516 2213.31C502.804 2222.26 505.578 2231.57 506.957 2241.82C508.163 2250.78 507.755 2259.58 505.834 2268.24C504.39 2274.74 501.964 2280.47 499.267 2285.9C497.074 2290.32 493.867 2293.07 490.864 2296.04C486 2300.84 480.621 2303.78 474.923 2305.71C464.068 2309.39 453.611 2307.38 443.884 2299.88C433.431 2291.81 426.656 2278.81 423.806 2261.4C422.349 2252.5 422.416 2243.75 423.887 2234.9C425.861 2223.04 429.648 2212.75 435.497 2204.22C440.948 2196.27 447.533 2191.11 454.789 2188.39C469.26 2182.96 481.91 2188.58 492.638 2204.04C494.596 2206.86 496.42 2209.88 498.516 2213.31Z" fill="#31487A"/>
<path d="M576.892 1241.37C581.767 1234.54 587.419 1234.45 593.011 1235.72C595.357 1236.25 597.645 1238.68 599.662 1240.86C602.336 1243.75 604.053 1248.03 605.526 1252.41C606.077 1254.04 606.344 1256 606.437 1257.84C606.587 1260.82 606.666 1263.85 606.431 1266.79C606.243 1269.15 605.863 1271.72 605.017 1273.66C601.165 1282.45 595.355 1287.3 588.599 1287.17C581.704 1287.04 575.475 1282.88 572.211 1272.67C569.224 1263.33 569.828 1254.27 573.969 1245.9C574.717 1244.39 575.718 1243.16 576.892 1241.37Z" fill="#31487A"/>
<path d="M538.853 2210.62C532.462 2207.56 528.66 2201.16 526.649 2192.71C524.912 2185.42 526.107 2178.13 529.008 2171.87C530.849 2167.9 533.265 2164.59 536.313 2162.42C542.651 2157.91 550.76 2159.8 555.984 2166.88C559.489 2171.63 561.377 2177.59 562.662 2184.19C563.754 2189.79 560.78 2202.63 556.451 2206.12C552.755 2209.1 549.1 2211.88 544.695 2211.09C542.91 2210.77 541.09 2210.9 538.853 2210.62Z" fill="#31487A"/>
<path d="M388.665 1663.33C402.695 1661.15 413.902 1668.84 423.381 1682.69C429.755 1692.01 433.89 1703.78 435.448 1716.7C437.376 1732.7 435.527 1748.09 428.313 1761.14C425.861 1765.58 422.777 1769.04 419.55 1771.94C413.631 1777.26 407.308 1781.24 400.282 1782.01C399.391 1782.11 398.522 1782.59 397.631 1782.76C396.205 1783.04 394.742 1783.59 393.343 1783.36C386.159 1782.2 379.054 1780.62 372.557 1775.26C362.682 1767.11 356.207 1754.94 353.319 1738.68C350.362 1722.03 352.536 1706.65 358.605 1692.09C364.177 1678.72 372.208 1670.64 381.906 1665.75C383.941 1664.72 386.104 1664.26 388.665 1663.33Z" fill="#81AADB"/>
<path d="M317.633 1614.63C320.967 1604.58 326.68 1600.91 333.148 1599.57C335.163 1599.15 337.463 1600.23 339.446 1601.36C346.877 1605.58 351.612 1615.54 352.046 1626.54C352.61 1640.86 345.685 1649.62 337.532 1651.3C335.05 1651.81 332.445 1651.81 329.962 1651.31C321.759 1649.65 314.849 1638.33 315.415 1624.37C315.542 1621.25 316.74 1618.24 317.633 1614.63Z" fill="#81AADB"/>
<path d="M202.984 1206.48C206.527 1213.49 208.778 1220.66 210.042 1228.79C211.836 1240.33 209.952 1250.43 205.176 1259.1C200.337 1267.88 194.044 1273.62 186.187 1274.58C185.299 1274.69 184.43 1275.13 183.548 1275.38C182.666 1275.63 181.751 1276.17 180.898 1276.01C172.199 1274.36 163.771 1271.67 157.741 1260.83C153.701 1253.57 151.289 1245.43 150.997 1235.76C150.741 1227.3 152.132 1219.7 154.878 1212.47C157.166 1206.45 160.443 1201.79 164.143 1197.9C168.813 1192.98 174.254 1190.66 179.84 1190.05C182.601 1189.74 185.507 1191.21 188.269 1192.32C194.008 1194.63 198.702 1199.57 202.984 1206.48Z" fill="#81AADB"/>
<path d="M157.682 2131.62C158.367 2129.03 158.895 2126.99 159.611 2125.12C163.217 2115.68 169.248 2111.69 175.915 2111.86C181.595 2112.01 186.742 2116.38 189.923 2124.01C192.009 2129.01 193.781 2134.25 193.535 2140.7C193.205 2149.34 190.716 2155.36 185.783 2159.8C181.13 2163.98 176.168 2164.5 171.15 2163.41C165.701 2162.23 161.495 2157.8 158.992 2150.08C157.126 2144.34 155.852 2138.58 157.682 2131.62Z" fill="#81AADB"/>
<path d="M146.846 1125.01C150.326 1115.19 156.229 1112.58 162.438 1111.59C165.673 1111.08 168.77 1113.64 171.558 1116.18C179.788 1123.68 182.268 1137.28 179.368 1149.29C178.953 1151.01 178.287 1152.76 177.435 1154.05C173.486 1160.02 168.87 1163.49 163.044 1163.73C158.646 1163.9 154.872 1162.05 151.259 1158.77C147.827 1155.65 145.659 1150.74 144.824 1145.21C144.168 1140.88 144.707 1136.06 145.021 1131.5C145.163 1129.45 146.046 1127.5 146.846 1125.01Z" fill="#81AADB"/>
<path d="M132.736 1334.27C129.724 1328.9 130.206 1323.06 130.612 1317.45C130.774 1315.21 131.889 1313.02 132.79 1311.03C133.491 1309.49 134.498 1308.23 135.425 1306.94C140.294 1300.15 147.776 1300.06 152.569 1306.99C154.611 1309.94 156.897 1312.56 157.833 1317.09C159.748 1326.37 158.345 1333.95 152.929 1339.01C148.434 1343.21 143.562 1344.4 138.413 1341.38C136.087 1340.02 134.761 1337.04 132.736 1334.27Z" fill="#81AADB"/>
<g clip-path="url(#clip0_641_96)">
<path d="M161.296 1089.97C163.395 1091.7 165.012 1093.55 166.518 1097.01C173.347 1125.87 179.873 1153.24 187.398 1180.28C191.275 1194.2 196.22 1208.03 201.912 1221.02C221.075 1264.73 259.5 1300.75 291.551 1271.4C290.017 1290.58 279.232 1294.47 268.18 1295.8C245.074 1298.57 224.677 1282.93 209.674 1255.33C198.338 1234.48 189.797 1210.32 181.915 1186.74C174.126 1163.43 168.407 1139.08 162.47 1115C160.692 1107.79 161.231 1099.95 160.279 1091.35C159.849 1090.29 160.814 1090.08 161.296 1089.97Z" fill="#2F312F"/>
<path d="M410.381 1966.18C409.299 1964.39 408.988 1962.43 409.928 1959.99C412.782 1959.28 414.383 1959.05 415.984 1958.82C416.353 1960.09 416.722 1961.37 417.207 1963.63C415.266 1965.08 413.209 1965.54 410.381 1966.18Z" fill="#E8E8E8"/>
<path d="M291.809 1270.55C259.5 1300.75 221.075 1264.73 201.912 1221.02C196.22 1208.03 191.275 1194.2 187.398 1180.28C179.873 1153.24 173.347 1125.87 166.938 1097.75C184.294 1098.23 201.468 1101.78 217.874 1100.48C250.576 1097.87 282.927 1092.96 315.252 1088.11C321.677 1087.14 327.336 1082.16 334.428 1078.47C334.873 1079.67 336.459 1083.4 337.664 1087.29C347.316 1118.43 357.389 1149.43 366.328 1180.84C372.472 1202.42 378.163 1224.67 372.693 1245.97C372.084 1248.34 370.57 1250.06 368.337 1253.16C337.903 1271.89 318.005 1240.69 297.017 1210.18C298.029 1219.99 298.844 1227.9 299.659 1235.81C297.128 1247.11 294.598 1258.4 291.809 1270.55ZM342.512 1154.93C340.799 1146.1 340.309 1134.05 331.751 1133.87C314.043 1133.49 296.586 1135.4 277.418 1136.46C280.017 1143.09 281.515 1146.91 283.479 1152.98C290.957 1168.3 297.266 1185.15 306.184 1198.56C320.102 1219.5 341.573 1219.62 350.248 1199.73C347.759 1185.64 345.27 1171.54 342.512 1154.93ZM277.9 1202.14C281.074 1179.71 271.503 1159.8 265.151 1137.87C243.903 1140.88 223.504 1143.75 203.12 1146.69C197.314 1147.53 192.843 1150.01 196.237 1163.12C199.593 1173.68 202.298 1184.67 206.426 1194.73C219.655 1226.98 240.537 1238.12 262.002 1232.1C274.014 1228.73 277.082 1220.97 277.9 1202.14Z" fill="#00B19E"/>
<path d="M349.077 1637.17C341.328 1644.03 344.527 1656.89 346.915 1666.19C352.753 1688.92 364.113 1707.27 379.055 1723.24C372.726 1723.29 365.449 1723.67 359.535 1719.18C345.822 1708.77 335.802 1691.73 329.546 1671.97C324.821 1657.05 322.142 1641.24 318.553 1625.82C319.033 1597 331.009 1581.2 348.338 1574.67C374.249 1564.91 400.82 1570.22 425.477 1598.98C449.292 1626.77 465.427 1678.68 452.831 1713.04C435.188 1730.64 427.676 1727.72 417.677 1698.28C409.32 1673.68 402.803 1648.2 394.917 1623.35C393.398 1618.56 388.494 1610.99 386.536 1611.35C375.82 1613.37 365.162 1616.39 355.31 1621.42C351.987 1623.12 351.085 1631.72 349.077 1637.17ZM410.082 1634.72C414.352 1647.97 418.322 1661.39 423.1 1674.36C424.302 1677.62 428.865 1682.04 430.524 1681.39C433.733 1680.12 435.976 1675.64 439.975 1671.5C445.734 1647.91 425.407 1615.85 403.692 1616.19C405.812 1621.86 407.729 1626.99 410.082 1634.72Z" fill="#00B09D"/>
<path d="M246.261 1385.14C247.148 1377.41 245.611 1367.12 253.791 1366.74C261.047 1366.4 268.474 1362.4 276.193 1372.28C254.64 1391.94 268.156 1435.7 285.809 1451.78C297.242 1462.18 311.646 1457.45 311.934 1438.48C312.198 1421.06 315.159 1404.17 318.123 1387.75C322.16 1365.38 341.075 1359.56 356.716 1373.23C373.929 1388.27 381.49 1410.72 387.348 1434.98C390.677 1448.77 393.542 1462.68 395.935 1477.28C389.775 1477.68 384.31 1477.72 378.808 1476.8C376.461 1476.41 374.037 1474.03 371.649 1472.56C373.221 1467.86 374.794 1463.16 376.866 1457.1C381.508 1442.38 375.956 1429.95 370.603 1418.02C366.037 1407.84 359.34 1401.11 351.285 1402.41C343.736 1403.64 339.847 1410.7 339.716 1421.92C337.448 1439.9 335.249 1457.91 332.855 1475.82C332.37 1479.46 331.15 1482.72 329.559 1487.31C328.38 1489.72 327.91 1490.97 327.441 1492.22C327.441 1492.22 327.391 1491.94 326.663 1491.87C313.274 1499.58 300.814 1494.1 288.452 1481.57C274.276 1467.2 264.288 1448.46 257.725 1426.38C253.664 1412.73 250.066 1398.89 246.261 1385.14Z" fill="#02B09D"/>
<path d="M285.229 1510.32C295.27 1512.9 305.761 1518.33 315.272 1517.56C352.746 1514.54 389.974 1509.93 427.156 1505.14C440.112 1503.47 452.668 1499.6 467.46 1496.27C471.972 1507.16 477.519 1520.55 482.529 1535.68C458.63 1539.4 435.213 1541.06 411.919 1543.44C379.751 1546.73 347.634 1550.34 315.599 1554.4C310.369 1555.06 305.675 1558.71 300.002 1561.31C295.223 1544.82 290.226 1527.57 285.229 1510.32Z" fill="#00B19E"/>
<path d="M355.519 1744.7C366.947 1746.81 378.708 1751.19 389.732 1750.56C411.3 1749.34 432.515 1745.61 453.743 1742.23C458.786 1741.42 463.3 1737.91 470.488 1734.49C474.216 1745.11 478.88 1757 482.291 1769.31C482.973 1771.77 478.876 1775.86 477.023 1779.13C490.705 1794.05 505.565 1810.42 499.411 1840.31C490.192 1843.58 485.282 1836.81 481.868 1826.63C480.343 1822.07 479.457 1817.21 478.343 1812.47C472.282 1786.68 466.712 1780.14 448.969 1779.93C438.355 1779.8 427.722 1780.21 417.428 1782.02C400.884 1784.92 384.613 1789.18 366.446 1793.27C362.985 1777.88 359.252 1761.29 355.519 1744.7Z" fill="#01B09E"/>
<path d="M388.955 1862.6C398.86 1873.78 409.129 1871.36 418.986 1870.52C439.202 1868.82 459.065 1864.74 479.394 1863.97C490.131 1863.55 500.333 1864.15 506.396 1851.45C512.305 1866.3 517.986 1880.58 523.025 1896.12C499.626 1899.02 476.642 1899.45 454.187 1902.7C436.894 1905.21 417.746 1900.76 402.912 1916.66C398.092 1897.99 393.523 1880.29 388.955 1862.6Z" fill="#01B09D"/>
<path d="M227.91 1302.98C234.861 1304.47 242.09 1307.69 248.716 1307.14C275.438 1304.91 302.035 1301.84 328.526 1298.25C333.305 1297.61 337.369 1293.07 343.285 1289.39C347.783 1302.13 353.064 1317.1 357.512 1333.07C316.916 1336.55 276.523 1335.7 238.624 1349.33C237.394 1345.44 235.062 1339.54 233.692 1333.42C231.437 1323.35 229.805 1313.13 227.91 1302.98Z" fill="#01B09D"/>
<path d="M284.386 1510.18C290.225 1527.57 295.223 1544.82 300.001 1561.31C305.675 1558.71 310.368 1555.06 315.599 1554.4C347.633 1550.34 379.75 1546.73 411.918 1543.44C435.213 1541.06 458.63 1539.4 482.67 1536.78C484.477 1546.72 481.619 1551.62 474.101 1552.26C432.926 1555.77 391.754 1559.33 350.736 1563.77C334.113 1565.58 317.897 1569.74 301.444 1572.57C299.78 1572.86 297.344 1572.13 295.973 1570.54C290.628 1564.32 281.529 1518.95 284.386 1510.18Z" fill="#2E302E"/>
<path d="M354.946 1743.77C359.253 1761.29 362.986 1777.89 366.447 1793.27C384.614 1789.18 400.885 1784.92 417.429 1782.02C427.723 1780.21 438.356 1779.8 448.97 1779.93C466.712 1780.14 472.283 1786.68 478.344 1812.47C479.458 1817.21 480.343 1822.07 481.869 1826.63C485.283 1836.82 490.193 1843.58 498.945 1841.23C497.769 1845.82 496.199 1854.32 493.916 1854.14C489.541 1853.79 483.22 1850 480.523 1844.94C476.782 1837.91 475.765 1828.34 473.353 1819.95C468.046 1801.47 462.9 1794.29 449.816 1794.92C424.755 1796.13 400.018 1799.66 375.257 1802.84C371.621 1803.31 368.59 1807.13 364.764 1809.75C360.146 1793.46 354.841 1776.97 351.061 1760.14C349.826 1754.64 344.08 1742.85 354.946 1743.77Z" fill="#30312F"/>
<path d="M227.563 1302.27C229.805 1313.13 231.437 1323.35 233.693 1333.42C235.062 1339.54 237.394 1345.45 238.624 1349.33C276.523 1335.7 316.916 1336.55 357.467 1334.01C361.278 1347.59 354.842 1347.65 348.398 1348.23C317.499 1351.03 286.61 1353.9 255.769 1357.05C249.676 1357.68 243.809 1359.64 236.629 1361.25C228.279 1342.47 219.412 1321.54 222.941 1294.43C224.366 1296.8 225.791 1299.18 227.563 1302.27Z" fill="#2F3230"/>
<path d="M388.377 1861.72C393.525 1880.29 398.093 1897.99 402.913 1916.66C417.748 1900.76 436.896 1905.21 454.189 1902.7C476.643 1899.45 499.627 1899.02 523.155 1897.23C523.924 1905.6 522.266 1911.49 515.362 1912.11C480.28 1915.28 444.778 1916.57 410.474 1923.44C397.58 1926.02 396.389 1919.26 393.709 1906.68C390.946 1893.72 387.893 1880.81 385.422 1867.81C385.015 1865.66 386.947 1863.17 388.377 1861.72Z" fill="#2D2D2B"/>
<path d="M349.851 1636.84C351.086 1631.72 351.988 1623.12 355.311 1621.42C365.163 1616.39 375.821 1613.37 386.537 1611.35C388.495 1610.99 393.399 1618.56 394.918 1623.35C402.804 1648.2 409.321 1673.68 417.678 1698.28C427.677 1727.72 435.189 1730.64 452.401 1713.81C451.563 1729.02 443.139 1734.84 433.92 1737.89C425.608 1740.64 420.377 1730.59 417.165 1720.62C408.845 1694.79 400.865 1668.78 393.287 1642.64C387.895 1624.05 387.428 1622.36 374.787 1625.46C366.354 1627.52 358.652 1632.71 349.851 1636.84Z" fill="#2E322F"/>
<path d="M246.3 1386.29C250.066 1398.89 253.664 1412.73 257.724 1426.38C264.287 1448.46 274.276 1467.2 288.452 1481.57C300.814 1494.1 313.274 1499.58 326.759 1491.92C326.194 1504.33 319.423 1510.97 309.525 1509.8C296.246 1508.23 285.04 1498.43 275.323 1484.34C257.728 1458.84 248.244 1428.95 244.87 1396.25C244.564 1393.29 245.812 1390.38 246.3 1386.29Z" fill="#303230"/>
<path d="M369.168 1325.89C367.867 1323.47 366.684 1320.9 365.243 1318.66C359.869 1310.31 357.083 1301.61 361.065 1292.72C365.235 1283.4 372.427 1284.13 379.547 1288.06C394.668 1296.42 401.761 1317.55 395.16 1336.7C385.779 1333.41 377.473 1329.65 369.168 1325.89Z" fill="#00AE9C"/>
<path d="M524.583 1867.08C522.964 1854.82 526.785 1848.85 534.795 1848.03C550.428 1846.42 566.165 1872.85 561.197 1895.22C546.004 1899.59 539.181 1893.95 524.583 1867.08Z" fill="#00B19E"/>
<path d="M318.003 1626.37C322.142 1641.24 324.821 1657.05 329.546 1671.97C335.802 1691.73 345.822 1708.77 359.535 1719.18C365.449 1723.67 372.726 1723.29 379.544 1724.07C381.407 1725.29 383.11 1727.56 384.814 1729.83C381.686 1733.64 378.68 1741.09 375.405 1740.51C367.711 1739.15 359.048 1736.16 352.269 1729.89C328.884 1708.24 314.128 1662.86 318.003 1626.37Z" fill="#303230"/>
<path d="M300.393 1235.96C298.844 1227.9 298.029 1219.99 297.017 1210.18C318.005 1240.69 337.904 1271.89 367.939 1253.88C365.385 1259.5 363.165 1268.42 358.599 1270.89C343.442 1279.09 328.639 1269.56 314.876 1253.77C310.09 1248.27 305.698 1242.02 300.393 1235.96Z" fill="#2C2E2C"/>
<path d="M340.359 1421.38C339.846 1410.7 343.736 1403.64 351.284 1402.41C359.339 1401.11 366.036 1407.84 370.602 1418.02C375.956 1429.95 381.507 1442.38 376.713 1456.1C373.562 1449.24 371.448 1441.73 368.486 1434.82C361.303 1418.07 352.346 1413.73 340.359 1421.38Z" fill="#2E3431"/>
<path d="M371.017 1473C374.038 1474.03 376.462 1476.41 378.808 1476.8C384.31 1477.72 389.775 1477.68 395.969 1478.54C393.245 1482.92 390.354 1488.66 386.239 1490.2C380.6 1492.31 374.032 1491.23 364.605 1491.67C367.071 1483.89 368.727 1478.67 371.017 1473Z" fill="#313432"/>
<path d="M524.043 1867.23C539.181 1893.95 546.005 1899.59 560.948 1896.21C559.207 1898.85 557.109 1903.73 554.106 1904.31C541.49 1906.75 525.468 1886.93 524.043 1867.23Z" fill="#2E3633"/>
<path d="M369.234 1326.95C377.474 1329.65 385.779 1333.41 394.773 1337.53C387.694 1345.29 378.791 1341.93 369.234 1326.95Z" fill="#2E2E2C"/>
<path d="M415.803 1957.69C414.383 1959.05 412.782 1959.28 410.448 1959.97C408.918 1956.89 408.12 1953.34 407.322 1949.8C407.809 1948.94 408.295 1948.08 408.781 1947.23C411.061 1950.34 413.342 1953.45 415.803 1957.69Z" fill="#A7A7A6"/>
<path d="M328.126 1492.58C327.911 1490.97 328.381 1489.72 329.354 1488.1C329.508 1489.46 329.159 1491.2 328.126 1492.58Z" fill="#303230"/>
<path d="M402.627 1948.27C402.74 1948.42 402.513 1948.11 402.627 1948.27Z" fill="#F6F6F6"/>
<path d="M277.206 1202.54C272.024 1186.59 267.536 1170.25 262.589 1152.23C240.778 1154.94 219.363 1157.59 197.131 1160.62C192.844 1150.01 197.315 1147.53 203.121 1146.69C223.504 1143.75 243.904 1140.88 265.152 1137.87C271.504 1159.8 281.075 1179.71 277.206 1202.54Z" fill="#2D2E2C"/>
<path d="M337.576 1158.6C335.686 1152.05 334.054 1146.99 327.624 1147.74C313.411 1149.4 298.909 1149.41 283.769 1150.41C281.515 1146.91 280.017 1143.09 277.418 1136.46C296.587 1135.4 314.043 1133.49 331.751 1133.87C340.309 1134.05 340.799 1146.1 341.993 1156.31C340.174 1158 338.875 1158.3 337.576 1158.6Z" fill="#303230"/>
<path d="M337.729 1159.82C338.875 1158.3 340.174 1158 342.127 1157.58C345.271 1171.54 347.76 1185.64 349.732 1200.48C345.437 1187.83 341.66 1174.44 337.729 1159.82Z" fill="#272321"/>
<path d="M439.297 1671.99C433.418 1653.56 424.914 1639.17 410.336 1632.15C407.73 1626.99 405.812 1621.86 403.692 1616.19C425.408 1615.85 445.735 1647.91 439.297 1671.99Z" fill="#2D2F2D"/>
</g>
<path d="M176.074 2014L173.962 2005.94H164.794L162.73 2014H155.434L164.506 1980.5H174.682L183.754 2014H176.074ZM169.594 1987.46H169.21L165.946 2000.13H172.858L169.594 1987.46ZM205.431 2009.49H205.143C204.599 2010.9 203.735 2012.1 202.551 2013.09C201.399 2014.08 199.831 2014.58 197.847 2014.58C196.663 2014.58 195.575 2014.38 194.583 2014C193.591 2013.58 192.743 2012.98 192.039 2012.18C191.335 2011.38 190.775 2010.4 190.359 2009.25C189.975 2008.1 189.783 2006.77 189.783 2005.26V1989.23H196.887V2004.3C196.887 2007.5 198.279 2009.1 201.063 2009.1C201.607 2009.1 202.135 2009.04 202.647 2008.91C203.191 2008.75 203.655 2008.53 204.039 2008.24C204.455 2007.92 204.791 2007.54 205.047 2007.09C205.303 2006.64 205.431 2006.11 205.431 2005.5V1989.23H212.535V2014H205.431V2009.49ZM234.836 2014C232.276 2014 230.372 2013.33 229.124 2011.98C227.876 2010.64 227.252 2008.93 227.252 2006.85V1994.75H220.532V1989.23H224.9C225.956 1989.23 226.708 1989.02 227.156 1988.61C227.604 1988.19 227.828 1987.42 227.828 1986.3V1980.5H234.356V1989.23H244.004V1994.75H234.356V2008.48H244.004V2014H234.836ZM253.298 1978.48H260.402V1993.74H260.69C260.978 1993.04 261.33 1992.38 261.746 1991.78C262.162 1991.17 262.658 1990.64 263.234 1990.19C263.842 1989.71 264.53 1989.34 265.298 1989.09C266.098 1988.8 266.994 1988.66 267.986 1988.66C269.17 1988.66 270.258 1988.86 271.25 1989.28C272.242 1989.66 273.09 1990.26 273.794 1991.06C274.498 1991.86 275.042 1992.83 275.426 1993.98C275.842 1995.14 276.05 1996.46 276.05 1997.97V2014H268.946V1998.93C268.946 1995.73 267.554 1994.13 264.77 1994.13C264.226 1994.13 263.682 1994.21 263.138 1994.37C262.626 1994.5 262.162 1994.72 261.746 1995.04C261.33 1995.33 260.994 1995.7 260.738 1996.14C260.514 1996.59 260.402 1997.12 260.402 1997.73V2014H253.298V1978.48ZM296.239 2014.58C294.319 2014.58 292.591 2014.29 291.055 2013.71C289.519 2013.1 288.207 2012.24 287.119 2011.12C286.063 2010 285.247 2008.64 284.671 2007.04C284.095 2005.44 283.807 2003.63 283.807 2001.62C283.807 1999.6 284.095 1997.79 284.671 1996.19C285.247 1994.59 286.063 1993.23 287.119 1992.11C288.207 1990.99 289.519 1990.14 291.055 1989.57C292.591 1988.96 294.319 1988.66 296.239 1988.66C298.159 1988.66 299.887 1988.96 301.423 1989.57C302.959 1990.14 304.255 1990.99 305.311 1992.11C306.399 1993.23 307.231 1994.59 307.807 1996.19C308.383 1997.79 308.671 1999.6 308.671 2001.62C308.671 2003.63 308.383 2005.44 307.807 2007.04C307.231 2008.64 306.399 2010 305.311 2011.12C304.255 2012.24 302.959 2013.1 301.423 2013.71C299.887 2014.29 298.159 2014.58 296.239 2014.58ZM296.239 2009.3C297.839 2009.3 299.087 2008.8 299.983 2007.81C300.879 2006.82 301.327 2005.41 301.327 2003.58V1999.65C301.327 1997.82 300.879 1996.42 299.983 1995.42C299.087 1994.43 297.839 1993.94 296.239 1993.94C294.639 1993.94 293.391 1994.43 292.495 1995.42C291.599 1996.42 291.151 1997.82 291.151 1999.65V2003.58C291.151 2005.41 291.599 2006.82 292.495 2007.81C293.391 2008.8 294.639 2009.3 296.239 2009.3ZM317.052 2008.48H322.764V1994.75H317.052V1989.23H329.868V1996.24H330.204C330.428 1995.34 330.732 1994.48 331.116 1993.65C331.532 1992.78 332.044 1992.03 332.652 1991.39C333.292 1990.72 334.06 1990.19 334.956 1989.81C335.852 1989.42 336.908 1989.23 338.124 1989.23H340.476V1995.76H335.196C333.436 1995.76 332.108 1996.29 331.212 1997.34C330.316 1998.37 329.868 1999.63 329.868 2001.14V2008.48H338.028V2014H317.052V2008.48ZM361.097 1986.06C359.497 1986.06 358.377 1985.74 357.737 1985.1C357.129 1984.43 356.825 1983.63 356.825 1982.7V1981.31C356.825 1980.35 357.129 1979.55 357.737 1978.91C358.377 1978.27 359.497 1977.95 361.097 1977.95C362.697 1977.95 363.801 1978.27 364.409 1978.91C365.049 1979.55 365.369 1980.35 365.369 1981.31V1982.7C365.369 1983.63 365.049 1984.43 364.409 1985.1C363.801 1985.74 362.697 1986.06 361.097 1986.06ZM349.673 2008.48H357.545V1994.75H349.673V1989.23H364.649V2008.48H371.945V2014H349.673V2008.48ZM379.991 2014V2008.1L393.767 1994.75H380.471V1989.23H401.975V1995.14L388.199 2008.48H402.455V2014H379.991ZM423.556 2014.58C419.396 2014.58 416.244 2013.42 414.1 2011.12C411.956 2008.82 410.884 2005.68 410.884 2001.71C410.884 1999.7 411.156 1997.89 411.7 1996.29C412.276 1994.66 413.076 1993.28 414.1 1992.16C415.156 1991.01 416.42 1990.14 417.892 1989.57C419.396 1988.96 421.076 1988.66 422.932 1988.66C424.788 1988.66 426.452 1988.96 427.924 1989.57C429.396 1990.14 430.644 1990.98 431.668 1992.06C432.692 1993.15 433.476 1994.48 434.02 1996.05C434.596 1997.58 434.884 1999.31 434.884 2001.23V2003.34H417.94V2003.78C417.94 2005.38 418.436 2006.67 419.428 2007.66C420.42 2008.62 421.876 2009.1 423.796 2009.1C425.268 2009.1 426.532 2008.83 427.588 2008.29C428.644 2007.71 429.556 2006.96 430.324 2006.03L434.164 2010.21C433.204 2011.39 431.86 2012.42 430.132 2013.28C428.404 2014.14 426.212 2014.58 423.556 2014.58ZM422.98 1993.74C421.444 1993.74 420.212 1994.22 419.284 1995.18C418.388 1996.11 417.94 1997.38 417.94 1998.98V1999.36H427.924V1998.98C427.924 1997.34 427.476 1996.06 426.58 1995.14C425.716 1994.21 424.516 1993.74 422.98 1993.74ZM459.009 2009.49H458.673C458.033 2010.99 457.137 2012.22 455.985 2013.18C454.865 2014.11 453.313 2014.58 451.329 2014.58C449.953 2014.58 448.689 2014.32 447.537 2013.81C446.417 2013.3 445.441 2012.51 444.609 2011.46C443.809 2010.4 443.169 2009.06 442.689 2007.42C442.241 2005.79 442.017 2003.86 442.017 2001.62C442.017 1999.38 442.241 1997.44 442.689 1995.81C443.169 1994.18 443.809 1992.83 444.609 1991.78C445.441 1990.72 446.417 1989.94 447.537 1989.42C448.689 1988.91 449.953 1988.66 451.329 1988.66C452.321 1988.66 453.201 1988.78 453.969 1989.04C454.737 1989.3 455.409 1989.65 455.985 1990.1C456.593 1990.54 457.105 1991.09 457.521 1991.73C457.969 1992.34 458.353 1993.01 458.673 1993.74H459.009V1978.48H466.113V2014H459.009V2009.49ZM454.401 2009.06C455.649 2009.06 456.721 2008.75 457.617 2008.14C458.545 2007.54 459.009 2006.58 459.009 2005.26V1997.97C459.009 1996.66 458.545 1995.7 457.617 1995.09C456.721 1994.48 455.649 1994.18 454.401 1994.18C452.801 1994.18 451.569 1994.67 450.705 1995.66C449.841 1996.62 449.409 1997.97 449.409 1999.7V2003.54C449.409 2005.26 449.841 2006.62 450.705 2007.62C451.569 2008.58 452.801 2009.06 454.401 2009.06ZM142.435 2042.5H153.235C157.747 2042.5 161.091 2043.94 163.267 2046.82C165.443 2049.7 166.531 2053.84 166.531 2059.25C166.531 2064.66 165.443 2068.8 163.267 2071.68C161.091 2074.56 157.747 2076 153.235 2076H142.435V2042.5ZM152.755 2070.34C154.899 2070.34 156.467 2069.65 157.459 2068.27C158.451 2066.9 158.947 2064.9 158.947 2062.27V2056.18C158.947 2053.58 158.451 2051.6 157.459 2050.22C156.467 2048.85 154.899 2048.16 152.755 2048.16H149.539V2070.34H152.755ZM186.96 2048.06C185.36 2048.06 184.24 2047.74 183.6 2047.1C182.992 2046.43 182.688 2045.63 182.688 2044.7V2043.31C182.688 2042.35 182.992 2041.55 183.6 2040.91C184.24 2040.27 185.36 2039.95 186.96 2039.95C188.56 2039.95 189.664 2040.27 190.272 2040.91C190.912 2041.55 191.232 2042.35 191.232 2043.31V2044.7C191.232 2045.63 190.912 2046.43 190.272 2047.1C189.664 2047.74 188.56 2048.06 186.96 2048.06ZM175.536 2070.48H183.408V2056.75H175.536V2051.23H190.512V2070.48H197.808V2076H175.536V2070.48ZM216.798 2076.58C214.046 2076.58 211.646 2076.16 209.598 2075.33C207.582 2074.5 206.062 2073.36 205.038 2071.92L209.022 2068.22C209.982 2069.28 211.102 2070.11 212.382 2070.72C213.694 2071.3 215.182 2071.58 216.846 2071.58C218.254 2071.58 219.358 2071.38 220.158 2070.96C220.958 2070.51 221.358 2069.84 221.358 2068.94C221.358 2068.24 221.086 2067.76 220.542 2067.5C219.998 2067.22 219.246 2066.99 218.286 2066.83L214.302 2066.21C213.182 2066.05 212.142 2065.81 211.182 2065.49C210.222 2065.14 209.39 2064.67 208.686 2064.1C207.982 2063.52 207.422 2062.82 207.006 2061.98C206.59 2061.15 206.382 2060.14 206.382 2058.96C206.382 2056.37 207.374 2054.34 209.358 2052.86C211.342 2051.39 214.126 2050.66 217.71 2050.66C220.142 2050.66 222.206 2050.99 223.902 2051.66C225.63 2052.3 227.006 2053.23 228.03 2054.45L224.478 2058.48C223.742 2057.68 222.798 2057.01 221.646 2056.46C220.494 2055.92 219.102 2055.65 217.47 2055.65C214.718 2055.65 213.342 2056.48 213.342 2058.14C213.342 2058.88 213.614 2059.39 214.158 2059.68C214.702 2059.94 215.454 2060.14 216.414 2060.3L220.35 2060.93C221.47 2061.09 222.51 2061.34 223.47 2061.7C224.43 2062.02 225.262 2062.46 225.966 2063.04C226.702 2063.62 227.278 2064.32 227.694 2065.15C228.11 2065.98 228.318 2066.99 228.318 2068.18C228.318 2070.77 227.31 2072.82 225.294 2074.32C223.31 2075.82 220.478 2076.58 216.798 2076.58ZM250.667 2076C248.107 2076 246.203 2075.33 244.955 2073.98C243.707 2072.64 243.083 2070.93 243.083 2068.85V2056.75H236.363V2051.23H240.731C241.787 2051.23 242.539 2051.02 242.987 2050.61C243.435 2050.19 243.659 2049.42 243.659 2048.3V2042.5H250.187V2051.23H259.835V2056.75H250.187V2070.48H259.835V2076H250.667ZM269.56 2070.48H275.272V2056.75H269.56V2051.23H282.376V2058.24H282.712C282.936 2057.34 283.24 2056.48 283.624 2055.65C284.04 2054.78 284.552 2054.03 285.16 2053.39C285.8 2052.72 286.568 2052.19 287.464 2051.81C288.36 2051.42 289.416 2051.23 290.632 2051.23H292.984V2057.76H287.704C285.944 2057.76 284.616 2058.29 283.72 2059.34C282.824 2060.37 282.376 2061.63 282.376 2063.14V2070.48H290.536V2076H269.56V2070.48ZM313.605 2048.06C312.005 2048.06 310.885 2047.74 310.245 2047.1C309.637 2046.43 309.333 2045.63 309.333 2044.7V2043.31C309.333 2042.35 309.637 2041.55 310.245 2040.91C310.885 2040.27 312.005 2039.95 313.605 2039.95C315.205 2039.95 316.309 2040.27 316.917 2040.91C317.557 2041.55 317.877 2042.35 317.877 2043.31V2044.7C317.877 2045.63 317.557 2046.43 316.917 2047.1C316.309 2047.74 315.205 2048.06 313.605 2048.06ZM302.181 2070.48H310.053V2056.75H302.181V2051.23H317.157V2070.48H324.453V2076H302.181V2070.48ZM332.163 2040.48H339.267V2055.74H339.603C340.211 2054.27 341.091 2053.06 342.243 2052.1C343.395 2051.14 344.963 2050.66 346.947 2050.66C348.323 2050.66 349.571 2050.91 350.691 2051.42C351.843 2051.94 352.819 2052.72 353.619 2053.78C354.451 2054.83 355.091 2056.18 355.539 2057.81C356.019 2059.44 356.259 2061.38 356.259 2063.62C356.259 2065.86 356.019 2067.79 355.539 2069.42C355.091 2071.06 354.451 2072.4 353.619 2073.46C352.819 2074.51 351.843 2075.3 350.691 2075.81C349.571 2076.32 348.323 2076.58 346.947 2076.58C344.963 2076.58 343.395 2076.11 342.243 2075.18C341.091 2074.22 340.211 2072.99 339.603 2071.49H339.267V2076H332.163V2040.48ZM343.875 2071.06C345.475 2071.06 346.707 2070.58 347.571 2069.62C348.435 2068.62 348.867 2067.26 348.867 2065.54V2061.7C348.867 2059.97 348.435 2058.62 347.571 2057.66C346.707 2056.67 345.475 2056.18 343.875 2056.18C342.627 2056.18 341.539 2056.48 340.611 2057.09C339.715 2057.7 339.267 2058.66 339.267 2059.97V2067.26C339.267 2068.58 339.715 2069.54 340.611 2070.14C341.539 2070.75 342.627 2071.06 343.875 2071.06ZM379.568 2071.49H379.28C378.736 2072.9 377.872 2074.1 376.688 2075.09C375.536 2076.08 373.968 2076.58 371.984 2076.58C370.8 2076.58 369.712 2076.38 368.72 2076C367.728 2075.58 366.88 2074.98 366.176 2074.18C365.472 2073.38 364.912 2072.4 364.496 2071.25C364.112 2070.1 363.92 2068.77 363.92 2067.26V2051.23H371.024V2066.3C371.024 2069.5 372.416 2071.1 375.2 2071.1C375.744 2071.1 376.272 2071.04 376.784 2070.91C377.328 2070.75 377.792 2070.53 378.176 2070.24C378.592 2069.92 378.928 2069.54 379.184 2069.09C379.44 2068.64 379.568 2068.11 379.568 2067.5V2051.23H386.672V2076H379.568V2071.49ZM408.973 2076C406.413 2076 404.509 2075.33 403.261 2073.98C402.013 2072.64 401.389 2070.93 401.389 2068.85V2056.75H394.669V2051.23H399.037C400.093 2051.23 400.845 2051.02 401.293 2050.61C401.741 2050.19 401.965 2049.42 401.965 2048.3V2042.5H408.493V2051.23H418.141V2056.75H408.493V2070.48H418.141V2076H408.973ZM438.714 2076.58C436.794 2076.58 435.066 2076.29 433.53 2075.71C431.994 2075.1 430.682 2074.24 429.594 2073.12C428.538 2072 427.722 2070.64 427.146 2069.04C426.57 2067.44 426.282 2065.63 426.282 2063.62C426.282 2061.6 426.57 2059.79 427.146 2058.19C427.722 2056.59 428.538 2055.23 429.594 2054.11C430.682 2052.99 431.994 2052.14 433.53 2051.57C435.066 2050.96 436.794 2050.66 438.714 2050.66C440.634 2050.66 442.362 2050.96 443.898 2051.57C445.434 2052.14 446.73 2052.99 447.786 2054.11C448.874 2055.23 449.706 2056.59 450.282 2058.19C450.858 2059.79 451.146 2061.6 451.146 2063.62C451.146 2065.63 450.858 2067.44 450.282 2069.04C449.706 2070.64 448.874 2072 447.786 2073.12C446.73 2074.24 445.434 2075.1 443.898 2075.71C442.362 2076.29 440.634 2076.58 438.714 2076.58ZM438.714 2071.3C440.314 2071.3 441.562 2070.8 442.458 2069.81C443.354 2068.82 443.802 2067.41 443.802 2065.58V2061.65C443.802 2059.82 443.354 2058.42 442.458 2057.42C441.562 2056.43 440.314 2055.94 438.714 2055.94C437.114 2055.94 435.866 2056.43 434.97 2057.42C434.074 2058.42 433.626 2059.82 433.626 2061.65V2065.58C433.626 2067.41 434.074 2068.82 434.97 2069.81C435.866 2070.8 437.114 2071.3 438.714 2071.3ZM459.528 2070.48H465.24V2056.75H459.528V2051.23H472.344V2058.24H472.68C472.904 2057.34 473.208 2056.48 473.592 2055.65C474.008 2054.78 474.52 2054.03 475.128 2053.39C475.768 2052.72 476.536 2052.19 477.432 2051.81C478.328 2051.42 479.384 2051.23 480.6 2051.23H482.952V2057.76H477.672C475.912 2057.76 474.584 2058.29 473.688 2059.34C472.792 2060.37 472.344 2061.63 472.344 2063.14V2070.48H480.504V2076H459.528V2070.48ZM193.344 2138L191.232 2129.94H182.064L180 2138H172.704L181.776 2104.5H191.952L201.024 2138H193.344ZM186.864 2111.46H186.48L183.216 2124.13H190.128L186.864 2111.46ZM205.566 2138V2113.23H211.278V2116.88H211.614C211.998 2115.73 212.542 2114.74 213.246 2113.9C213.982 2113.07 215.006 2112.66 216.318 2112.66C218.718 2112.66 220.19 2114.06 220.734 2116.88H221.022C221.214 2116.3 221.454 2115.76 221.742 2115.25C222.03 2114.74 222.382 2114.29 222.798 2113.9C223.214 2113.52 223.71 2113.22 224.286 2112.99C224.862 2112.77 225.534 2112.66 226.302 2112.66C229.758 2112.66 231.486 2115.2 231.486 2120.29V2138H225.774V2121.01C225.774 2119.86 225.566 2119.06 225.15 2118.61C224.766 2118.13 224.254 2117.89 223.614 2117.89C223.006 2117.89 222.478 2118.1 222.03 2118.51C221.614 2118.9 221.406 2119.5 221.406 2120.34V2138H215.646V2121.01C215.646 2119.86 215.454 2119.06 215.07 2118.61C214.718 2118.13 214.222 2117.89 213.582 2117.89C212.942 2117.89 212.398 2118.1 211.95 2118.51C211.502 2118.9 211.278 2119.5 211.278 2120.34V2138H205.566ZM238.619 2102.48H245.723V2117.74H246.059C246.667 2116.27 247.547 2115.06 248.699 2114.1C249.851 2113.14 251.419 2112.66 253.403 2112.66C254.779 2112.66 256.027 2112.91 257.147 2113.42C258.299 2113.94 259.275 2114.72 260.075 2115.78C260.907 2116.83 261.547 2118.18 261.995 2119.81C262.475 2121.44 262.715 2123.38 262.715 2125.62C262.715 2127.86 262.475 2129.79 261.995 2131.42C261.547 2133.06 260.907 2134.4 260.075 2135.46C259.275 2136.51 258.299 2137.3 257.147 2137.81C256.027 2138.32 254.779 2138.58 253.403 2138.58C251.419 2138.58 249.851 2138.11 248.699 2137.18C247.547 2136.22 246.667 2134.99 246.059 2133.49H245.723V2138H238.619V2102.48ZM250.331 2133.06C251.931 2133.06 253.163 2132.58 254.027 2131.62C254.891 2130.62 255.323 2129.26 255.323 2127.54V2123.7C255.323 2121.97 254.891 2120.62 254.027 2119.66C253.163 2118.67 251.931 2118.18 250.331 2118.18C249.083 2118.18 247.995 2118.48 247.067 2119.09C246.171 2119.7 245.723 2120.66 245.723 2121.97V2129.26C245.723 2130.58 246.171 2131.54 247.067 2132.14C247.995 2132.75 249.083 2133.06 250.331 2133.06ZM282.52 2138.58C278.36 2138.58 275.208 2137.42 273.064 2135.12C270.92 2132.82 269.848 2129.68 269.848 2125.71C269.848 2123.7 270.12 2121.89 270.664 2120.29C271.24 2118.66 272.04 2117.28 273.064 2116.16C274.12 2115.01 275.384 2114.14 276.856 2113.57C278.36 2112.96 280.04 2112.66 281.896 2112.66C283.752 2112.66 285.416 2112.96 286.888 2113.57C288.36 2114.14 289.608 2114.98 290.632 2116.06C291.656 2117.15 292.44 2118.48 292.984 2120.05C293.56 2121.58 293.848 2123.31 293.848 2125.23V2127.34H276.904V2127.78C276.904 2129.38 277.4 2130.67 278.392 2131.66C279.384 2132.62 280.84 2133.1 282.76 2133.1C284.232 2133.1 285.496 2132.83 286.552 2132.29C287.608 2131.71 288.52 2130.96 289.288 2130.03L293.128 2134.21C292.168 2135.39 290.824 2136.42 289.096 2137.28C287.368 2138.14 285.176 2138.58 282.52 2138.58ZM281.944 2117.74C280.408 2117.74 279.176 2118.22 278.248 2119.18C277.352 2120.11 276.904 2121.38 276.904 2122.98V2123.36H286.888V2122.98C286.888 2121.34 286.44 2120.06 285.544 2119.14C284.68 2118.21 283.48 2117.74 281.944 2117.74ZM302.661 2132.48H308.373V2118.75H302.661V2113.23H315.477V2120.24H315.813C316.037 2119.34 316.341 2118.48 316.725 2117.65C317.141 2116.78 317.653 2116.03 318.261 2115.39C318.901 2114.72 319.669 2114.19 320.565 2113.81C321.461 2113.42 322.517 2113.23 323.733 2113.23H326.085V2119.76H320.805C319.045 2119.76 317.717 2120.29 316.821 2121.34C315.925 2122.37 315.477 2123.63 315.477 2125.14V2132.48H323.637V2138H302.661V2132.48ZM333.891 2138V2113.23H340.995V2117.74H341.283C341.571 2117.04 341.923 2116.38 342.339 2115.78C342.755 2115.17 343.251 2114.64 343.827 2114.19C344.435 2113.71 345.123 2113.34 345.891 2113.09C346.691 2112.8 347.587 2112.66 348.579 2112.66C349.763 2112.66 350.851 2112.86 351.843 2113.28C352.835 2113.66 353.683 2114.26 354.387 2115.06C355.091 2115.86 355.635 2116.83 356.019 2117.98C356.435 2119.14 356.643 2120.46 356.643 2121.97V2138H349.539V2122.93C349.539 2119.73 348.147 2118.13 345.363 2118.13C344.819 2118.13 344.275 2118.21 343.731 2118.37C343.219 2118.5 342.755 2118.72 342.339 2119.04C341.923 2119.33 341.587 2119.7 341.331 2120.14C341.107 2120.59 340.995 2121.12 340.995 2121.73V2138H333.891ZM385.808 2138C384.336 2138 383.152 2137.63 382.256 2136.9C381.36 2136.13 380.832 2135.04 380.672 2133.63H380.432C379.984 2135.26 379.088 2136.5 377.744 2137.33C376.432 2138.16 374.816 2138.58 372.896 2138.58C370.496 2138.58 368.56 2137.94 367.088 2136.66C365.648 2135.34 364.928 2133.52 364.928 2131.18C364.928 2128.59 365.872 2126.67 367.76 2125.42C369.648 2124.18 372.416 2123.55 376.064 2123.55H380.048V2122.3C380.048 2120.83 379.696 2119.73 378.992 2118.99C378.32 2118.22 377.168 2117.84 375.536 2117.84C374.032 2117.84 372.816 2118.13 371.888 2118.7C370.96 2119.28 370.16 2120.03 369.488 2120.96L365.6 2117.5C366.432 2116.1 367.728 2114.94 369.488 2114.05C371.28 2113.12 373.568 2112.66 376.352 2112.66C379.744 2112.66 382.384 2113.44 384.272 2115.01C386.192 2116.54 387.152 2118.88 387.152 2122.02V2132.86H389.888V2138H385.808ZM375.584 2133.92C376.832 2133.92 377.888 2133.62 378.752 2133.01C379.616 2132.4 380.048 2131.52 380.048 2130.37V2127.39H376.256C373.344 2127.39 371.888 2128.37 371.888 2130.32V2131.28C371.888 2132.14 372.224 2132.8 372.896 2133.25C373.568 2133.7 374.464 2133.92 375.584 2133.92ZM410.413 2138C407.853 2138 405.949 2137.33 404.701 2135.98C403.453 2134.64 402.829 2132.93 402.829 2130.85V2118.75H396.109V2113.23H400.477C401.533 2113.23 402.285 2113.02 402.733 2112.61C403.181 2112.19 403.405 2111.42 403.405 2110.3V2104.5H409.933V2113.23H419.581V2118.75H409.933V2132.48H419.581V2138H410.413ZM428.874 2102.48H435.978V2117.74H436.266C436.554 2117.04 436.906 2116.38 437.322 2115.78C437.738 2115.17 438.234 2114.64 438.81 2114.19C439.418 2113.71 440.106 2113.34 440.874 2113.09C441.674 2112.8 442.57 2112.66 443.562 2112.66C444.746 2112.66 445.834 2112.86 446.826 2113.28C447.818 2113.66 448.666 2114.26 449.37 2115.06C450.074 2115.86 450.618 2116.83 451.002 2117.98C451.418 2119.14 451.626 2120.46 451.626 2121.97V2138H444.522V2122.93C444.522 2119.73 443.13 2118.13 440.346 2118.13C439.802 2118.13 439.258 2118.21 438.714 2118.37C438.202 2118.5 437.738 2118.72 437.322 2119.04C436.906 2119.33 436.57 2119.7 436.314 2120.14C436.09 2120.59 435.978 2121.12 435.978 2121.73V2138H428.874V2102.48Z" fill="white"/>
<defs>
<clipPath id="clip0_641_96">
<rect width="909.517" height="320.18" fill="white" transform="translate(423.373 1028) rotate(77.3211)"/>
</clipPath>
</defs>
</svg>
