<svg width="1066" height="152" viewBox="0 0 1066 152" fill="none" xmlns="http://www.w3.org/2000/svg">
<path d="M227.416 79.8624C213.371 79.9791 199.745 79.9791 185.723 79.9791C185.723 54.3702 185.723 28.3278 185.723 1.8254C186.689 1.72271 187.939 1.47823 189.19 1.47438C199.344 1.44316 209.499 1.39144 219.653 1.47054C241.954 1.64425 257.637 16.2464 259.951 38.9005C261.881 57.8066 248.203 75.204 227.416 79.8624ZM241.633 46.9633C244.33 33.6929 237.365 20.1285 225.611 17.7175C218.443 16.2472 210.877 16.7161 203.307 16.3041C203.307 33.1745 203.307 49.0666 203.307 65.4565C207.973 65.4565 212.421 65.4589 216.868 65.4561C229.672 65.4478 237.371 59.8958 241.633 46.9633Z" fill="#364188"/>
<path d="M353.101 78.7489C353.374 79.4965 353.424 79.9461 353.474 80.3958C352.652 80.4741 351.832 80.588 351.008 80.6256C335.322 81.3434 335.319 81.3435 325.428 69.0682C323.548 66.7348 321.331 64.58 319.902 61.9935C316.057 55.0356 310.396 52.8802 302.406 55.0429C302.406 63.0944 302.406 71.497 302.406 80.2609C296.348 80.2609 290.782 80.2609 284.822 80.2609C284.822 54.299 284.822 28.2528 284.822 1.85931C285.796 1.7356 286.891 1.47534 287.986 1.47601C300.311 1.48364 312.646 1.21997 324.956 1.66449C335.229 2.03543 343.064 7.15823 347.603 16.4469C352.047 25.5423 351.505 34.7721 345.426 42.8655C342.337 46.9787 337.713 49.9396 333.385 53.7741C339.542 61.5682 346.21 70.0096 353.101 78.7489ZM326.966 17.9108C318.835 17.3009 310.705 16.6909 302.529 16.0776C302.529 24.515 302.529 31.7216 302.529 38.82C303.159 39.0382 303.46 39.2313 303.762 39.2336C309.066 39.2738 314.372 39.3241 319.676 39.304C326.206 39.2794 330.403 36.9243 331.938 31.999C333.628 26.5723 332.348 21.8581 326.966 17.9108Z" fill="#364188"/>
<path d="M52.7125 59.0159C58.3044 66.065 63.6669 72.8396 69.7825 80.5655C62.9063 80.5655 56.8965 80.7082 50.9052 80.4395C49.7706 80.3886 48.5358 78.8459 47.6433 77.7504C43.2292 72.3319 38.3816 67.1651 34.7049 61.2741C30.4747 54.4961 24.9379 53.176 17.3868 55.0647C17.3868 63.2832 17.3868 71.6871 17.3868 80.3526C11.3467 80.3526 5.7924 80.3526 0 80.3526C0 54.0266 0 27.9603 0 1.78002C14.3689 1.78002 28.5123 1.1812 42.5777 1.97069C53.6983 2.5949 62.7907 11.7677 64.9982 22.4248C67.2912 33.4948 62.641 44.1916 52.8474 50.2772C51.4474 51.1471 49.9463 51.8544 47.9981 52.9027C49.5537 54.9278 51.0184 56.8346 52.7125 59.0159ZM47.4731 30.9922C48.8174 23.7124 45.2255 17.3711 38.6831 16.8511C31.7865 16.3031 24.8125 16.7283 17.76 16.7283C17.76 24.4465 17.76 31.7764 17.76 39.3168C24.0094 39.3168 29.8242 39.2825 35.6385 39.3266C41.2218 39.369 45.2 37.0279 47.4731 30.9922Z" fill="#344088"/>
<path d="M673.69 53.7824C675.069 51.5348 676.197 49.5537 677.743 46.8402C669.752 46.8402 662.557 46.8402 654.961 46.8402C654.961 41.82 654.961 37.2997 654.961 32.5345C668.232 32.5345 681.333 32.5345 694.406 32.5345C699.626 49.4031 687.521 70.6397 669.236 76.8348C647.798 84.0983 626.173 73.9036 618.604 52.965C611.394 33.0215 621.555 10.3945 641.186 2.67985C660.369 -4.85842 683.408 4.06339 691.118 22.4635C684.673 22.4635 678.435 22.5416 672.202 22.3955C671.005 22.3673 669.731 21.6124 668.657 20.9323C657.921 14.1306 645.126 16.3727 637.583 26.4316C630.635 35.696 632.321 49.4084 641.347 57.0549C650.579 64.8763 663.648 64.0686 672.406 55.1341C672.756 54.7774 673.095 54.4108 673.69 53.7824Z" fill="#364188"/>
<path d="M828.591 42.1075C825.997 40.0233 823.674 38.1711 820.564 35.6918C820.564 51.0335 820.564 65.5316 820.564 80.3313C814.398 80.3313 808.832 80.3313 803.033 80.3313C803.033 54.3377 803.033 28.476 803.033 1.68652C821.935 16.8196 840.175 31.4232 859.124 46.5941C859.124 31.1357 859.124 16.5901 859.124 1.75027C865.127 1.75027 870.704 1.75027 876.592 1.75027C876.592 27.7053 876.592 53.6139 876.592 80.5159C860.385 67.5528 844.624 54.9461 828.591 42.1075Z" fill="#38448A"/>
<path d="M740.838 17.0888C740.493 22.5482 740.493 27.6928 740.493 33.478C750.519 33.478 760.558 33.478 770.871 33.478C770.871 38.8648 770.871 43.617 770.871 48.8343C760.873 48.8343 750.93 48.8343 740.636 48.8343C740.636 54.5024 740.636 59.7216 740.636 65.2993C752.625 65.2993 764.563 65.2993 776.872 65.2993C776.872 70.3669 776.872 75.1008 776.872 80.2361C759.125 80.2361 741.238 80.2361 722.955 80.2361C722.955 54.2721 722.955 28.2238 722.955 1.81445C740.801 1.81445 758.692 1.81445 776.916 1.81445C776.916 6.46558 776.916 11.1977 776.916 16.774C765.019 16.774 753.101 16.774 740.838 17.0888Z" fill="#364289"/>
<path d="M111.94 57.7001C117.341 63.3415 123.454 65.0744 130.343 62.0835C137.169 59.1198 140.215 53.5035 140.207 46.1334C140.192 31.4813 140.203 16.8292 140.203 1.81689C145.937 1.81689 151.47 1.81689 157.133 1.81689C157.133 18.9305 158.055 35.9467 156.847 52.8105C155.844 66.8254 142.236 81.5081 122.161 80.7104C106.855 80.1021 92.2563 67.7404 91.3505 51.9994C90.397 35.428 91.1369 18.7592 91.1369 1.79395C96.5745 1.79395 102.114 1.79395 108.172 1.79395C108.172 16.3734 107.919 30.8275 108.333 45.2625C108.45 49.3462 110.513 53.3741 111.94 57.7001Z" fill="#364289"/>
<path d="M960.989 26.4612C959.305 25.4496 957.969 24.5294 956.806 23.4272C947.369 14.4867 933.192 14.9659 924.191 24.5656C915.843 33.468 916.553 48.0935 925.737 56.4113C935.356 65.1224 949.635 64.1616 958.347 54.475C959.676 52.9977 962.086 51.9145 964.091 51.7404C968.695 51.3405 973.357 51.6137 978.037 51.6137C976.374 64.4704 960.357 79.2975 942.533 79.415C920.427 79.5607 903.143 63.9034 901.432 42.6278C899.839 22.8092 914.358 3.81127 933.561 0.58745C953.149 -2.70109 973.101 8.82213 977.868 26.4682C972.325 26.4682 966.871 26.4682 960.989 26.4612Z" fill="#364289"/>
<path d="M537.349 44.5068C545.239 30.2169 552.958 16.2537 561.144 1.44434C575.955 28.0789 590.453 54.1494 605.396 81.0208C598.877 81.0208 593.271 81.257 587.71 80.8651C586.203 80.7589 584.313 79.0467 583.477 77.5734C576.18 64.7082 569.082 51.7299 561.773 38.5113C554.528 51.5947 547.342 64.3433 540.424 77.2361C538.861 80.1503 537.104 81.2779 533.813 81.101C528.539 80.8174 523.239 81.025 517.033 81.025C524.005 68.4991 530.591 56.6663 537.349 44.5068Z" fill="#364188"/>
<path d="M1047.13 29.3649C1039.5 37.9197 1036.96 47.5117 1038.03 58.5437C1038.72 65.6069 1038.16 72.7913 1038.16 80.2745C1032.23 80.2745 1026.66 80.2745 1020.37 80.2745C1020.37 72.6038 1019.83 64.7961 1020.51 57.0959C1021.39 47.1015 1018.62 38.8288 1012.57 30.8618C1005.66 21.7606 999.784 11.8765 992.893 1.48222C998.827 1.48222 1004.03 1.28212 1009.2 1.62983C1010.41 1.71174 1011.75 3.47419 1012.62 4.7465C1018.04 12.7145 1023.35 20.7626 1029.16 29.4847C1031.27 26.4548 1033.13 23.8374 1034.93 21.1807C1036.99 18.1532 1039.6 15.3298 1040.9 12.0002C1045.5 0.278087 1054.67 0.20515 1065.29 2.02653C1059.22 11.1583 1053.27 20.1083 1047.13 29.3649Z" fill="#364289"/>
<path d="M415.278 39.1888C408.172 51.7498 400.969 64.2578 394.033 76.912C392.455 79.7907 390.703 80.8957 387.432 80.7137C382.169 80.4209 376.878 80.6351 370.76 80.6351C385.579 53.8827 400.023 27.808 414.757 1.20898C418.43 7.88785 421.844 14.0955 425.035 20.8953C421.634 27.388 418.456 33.2884 415.278 39.1888Z" fill="#E40330"/>
<path d="M415.559 39.4085C418.455 33.289 421.633 27.3886 425.077 21.2305C430.669 30.4528 435.996 39.9327 441.202 50.0623C439.977 51.9096 438.931 53.1653 437.761 54.2936C434.871 57.0819 431.924 59.8118 429 62.5652C424.613 54.9194 420.227 47.2736 415.559 39.4085Z" fill="#384479"/>
<path d="M429.084 62.917C431.926 59.8114 434.872 57.0815 437.762 54.2932C438.932 53.1649 439.979 51.9092 441.266 50.4014C447.098 60.0008 452.745 69.9103 458.848 80.6194C452.142 80.6194 446.383 80.7517 440.641 80.5058C439.516 80.4577 438.081 79.1666 437.429 78.0686C434.547 73.2113 431.899 68.2151 429.084 62.917Z" fill="#364188"/>
<path d="M738.169 128.015C741.532 130.432 741.933 133.348 740.594 136.509C739.362 139.415 736.619 140.397 733.416 140.461C730.171 140.525 726.924 140.475 723.596 140.475C723.596 131.947 723.596 123.732 723.596 115.225C726.708 115.225 729.689 114.974 732.6 115.275C739.711 116.01 742.189 121.414 738.031 126.703C737.81 126.983 737.936 127.486 738.169 128.015ZM727.433 135.306C728.259 139.684 731.918 137.415 734.135 137.274C737.487 137.061 738.019 134.327 737.209 131.978C735.63 127.404 731.364 129.274 727.428 128.93C727.428 131.018 727.428 132.786 727.433 135.306ZM730.536 125.927C734 126.088 736.602 125.265 736.251 121.49C735.97 118.464 732.993 117.468 727.43 118.613C727.43 120.198 727.17 121.907 727.531 123.5C727.736 124.404 728.959 125.119 730.536 125.927Z" fill="#E6143E"/>
<path d="M470.638 116.597C476.398 120.731 478.219 128.02 475.296 134.308C472.747 139.792 467.261 141.505 456.131 140.185C456.131 132.016 456.131 123.814 456.131 114.547C461.014 115.195 465.69 115.816 470.638 116.597ZM459.936 122.999C459.936 127.747 459.936 132.495 459.936 137.37C464.19 137.552 468.433 138.423 470.672 134.646C473.304 130.204 473.42 125.346 470.559 120.939C468.231 117.354 464.115 117.969 459.936 118.132C459.936 119.724 459.936 120.991 459.936 122.999Z" fill="#E6153E"/>
<path d="M436.969 134.648C437.789 136.618 438.61 138.235 439.971 140.92C437.43 140.577 435.213 140.279 432.997 139.98C427.404 141.68 424.165 141.694 421.511 139.1C418.454 136.112 417.878 128.817 420.382 124.795C422.525 121.353 426.061 120.437 433.23 121.67C433.23 120.229 433.23 118.865 433.23 117.5C433.23 116.239 433.23 114.978 433.23 113.775C436.368 112.667 437.036 113.784 437 116.113C436.907 122.173 436.969 128.234 436.969 134.648ZM424.758 136.914C429.671 139.347 433.197 137.667 433.241 132.868C433.254 131.455 433.153 130.036 433.263 128.631C433.465 126.06 433.117 124.14 429.486 123.867C425.979 123.604 423.656 124.974 423.349 127.814C423.045 130.632 423.926 133.554 424.758 136.914Z" fill="#E60C37"/>
<path d="M566.427 120.864C570.856 120.998 573.417 122.838 574.382 126.44C575.609 131.022 575.706 135.575 571.698 139.066C568.929 141.478 565.396 141.526 561.763 140.072C560.555 139.589 558.912 139.996 557.186 139.996C557.186 131.478 557.186 122.667 557.186 113.846C560.666 113.253 560.68 113.252 560.731 116.577C560.761 118.474 560.737 120.372 560.737 122.401C562.867 121.796 564.47 121.34 566.427 120.864ZM565.923 123.789C561.842 123.964 560.09 125.815 560.633 129.543C560.853 131.058 560.781 132.629 560.646 134.161C560.387 137.098 562.26 137.995 565.025 138.141C568.337 138.315 569.961 136.57 570.651 133.933C571.98 128.855 570.605 125.49 565.923 123.789Z" fill="#E50A35"/>
<path d="M238.336 127.915C239.635 124.263 241.057 120.956 242 117.564C242.602 115.394 244.077 115.09 246.475 115.012C249.077 114.928 250.21 115.693 250.868 117.635C253.398 125.098 256.091 132.526 259.099 141.028C256.875 140.248 254.396 139.848 254.337 139.288C253.564 131.876 247.043 133.383 241.122 133.717C239.865 135.932 238.672 138.224 237.206 140.399C236.999 140.705 235.459 140.441 233.957 140.441C235.489 136.086 236.873 132.155 238.336 127.915ZM250.699 129.381C249.372 125.739 248.046 122.097 246.398 117.575C244.665 122.437 243.233 126.452 241.468 131.403C245.272 130.84 248.04 130.431 250.699 129.381Z" fill="#E60D37"/>
<path d="M304.623 114.323C304.681 117.383 304.681 120.094 304.681 123.181C306.009 122.522 307.041 121.94 308.136 121.479C313 119.43 317.321 121.359 317.841 126.144C318.286 130.241 318.232 134.403 318.018 138.52C317.975 139.367 316.244 140.141 315.291 140.949C314.912 140.721 314.532 140.492 314.152 140.264C314.152 136.288 314.137 132.311 314.158 128.335C314.17 125.902 313.593 123.782 310.302 123.841C307.172 123.896 304.687 124.817 304.808 128.351C304.919 131.577 304.727 134.813 304.863 138.037C304.967 140.5 303.769 140.907 301.101 140.09C301.101 131.805 301.032 123.443 301.143 115.083C301.177 112.535 302.895 113.027 304.623 114.323Z" fill="#E60C37"/>
<path d="M279.111 138.459C278.914 139.399 278.326 140.909 277.88 140.876C276.254 140.754 274.675 140.115 273.322 138.949C273.047 138.963 272.722 138.893 272.506 139.001C264.071 143.224 260.123 141.22 260.062 132.655C260.036 129.051 260.057 125.448 260.057 121.817C262.875 120.707 264.245 121.139 264.141 124.042C264.021 127.396 264.088 130.757 264.142 134.114C264.179 136.349 264.621 138.391 267.936 138.032C270.772 137.724 273.253 137.201 273.053 133.702C272.826 129.734 273.001 125.748 273.001 121.76C275.994 120.75 277.265 121.294 277.142 124.136C276.98 127.875 276.985 131.629 277.178 135.366C277.23 136.371 278.224 137.337 279.111 138.459Z" fill="#E61A42"/>
<path d="M688.056 123.476C691.232 127.639 691.411 131.798 689.56 136.169C688.062 139.704 684.81 140.991 681.136 141.015C677.478 141.039 674.174 139.863 672.629 136.318C670.796 132.11 670.75 127.955 673.502 124.143C676.449 120.061 682.303 119.819 688.056 123.476ZM679.574 124.005C675.112 126.471 673.694 133.503 677.472 136.54C678.797 137.606 682.014 138.109 683.492 137.392C687.361 135.516 686.884 131.714 686.389 128.439C685.947 125.519 684.039 123.502 679.574 124.005Z" fill="#E60E38"/>
<path d="M640.277 129.009C640.414 136.667 638.327 139.747 632.511 140.855C628.113 141.692 623.507 140.05 622.5 136.194C621.602 132.754 621.585 128.747 622.648 125.368C623.813 121.666 627.891 120.524 632.098 120.925C636.526 121.347 638.823 123.607 640.277 129.009ZM626.462 135.838C628.425 136.538 630.593 138.047 632.29 137.696C633.803 137.384 635.357 135.157 635.87 133.513C636.458 131.633 636.603 129.146 635.673 127.511C634.762 125.909 632.286 124.172 630.448 124.128C628.885 124.09 626.31 126.158 625.873 127.688C625.206 130.029 625.994 132.709 626.462 135.838Z" fill="#E60E39"/>
<path d="M399.826 139.907C394.995 135.943 393.717 129.143 396.889 124.6C399.113 121.414 402.583 120.423 406.568 120.995C410.488 121.558 412.477 123.865 412.926 127.328C413.105 128.705 413.148 130.097 413.286 131.905C408.572 131.905 404.222 131.905 399.726 131.905C399.491 135.493 400.959 137.749 404.495 137.947C407.011 138.087 409.595 137.236 412.668 136.745C409.462 141.336 407.278 141.818 399.826 139.907ZM400.942 125.253C400.349 126.506 399.756 127.759 399.02 129.316C402.77 129.316 405.975 129.316 409.197 129.316C408.669 124.033 406.551 122.857 400.942 125.253Z" fill="#E50B36"/>
<path d="M339.661 139.572C333.567 141.643 329.373 141.132 326.853 138.213C323.911 134.806 323.489 128.309 326.123 124.615C328.169 121.746 331.277 120.56 334.966 120.907C338.43 121.234 341.314 122.604 342.554 125.769C344.495 130.722 344.318 135.412 339.661 139.572ZM334.225 138.088C337.822 137.909 339.391 135.591 339.299 132.938C339.204 130.19 338.384 127.244 336.917 124.873C336.425 124.078 332.452 124.071 330.974 124.949C327.682 126.905 328.385 130.391 328.805 133.418C329.138 135.824 330.378 137.833 334.225 138.088Z" fill="#E60D38"/>
<path d="M790.435 125.968C793.426 121.481 797.516 119.894 802.027 121.211C806.077 122.393 807.681 125.475 807.33 131.794C803.01 131.794 798.656 131.794 794.345 131.794C793.763 136.953 797.879 139.492 802.991 137.517C803.858 137.182 804.736 136.804 805.649 136.67C805.945 136.627 806.37 137.302 806.858 137.765C803.802 140.959 800.36 141.641 796.034 140.546C791.89 139.498 790.308 136.727 789.778 133.492C789.395 131.159 790.11 128.679 790.435 125.968ZM802.787 125.907C800.961 125.298 798.774 123.826 797.399 124.296C795.622 124.904 794.493 127.062 792.36 129.32C797.08 129.32 800.164 129.32 803.457 129.32C803.33 128.26 803.224 127.384 802.787 125.907Z" fill="#E60B36"/>
<path d="M598.25 133.947C598.956 136.178 599.663 138.051 600.545 140.385C598.479 141.873 596.286 141.468 594.471 138.634C593.394 139.204 592.492 139.789 591.5 140.19C585.727 142.523 582.007 140.563 581.613 134.81C581.357 131.079 581.338 127.319 581.573 123.59C581.633 122.64 583.063 121.761 583.863 120.849C584.344 121.049 584.825 121.249 585.306 121.45C585.306 125.405 585.263 129.362 585.322 133.317C585.357 135.68 585.289 138.28 589.172 138.06C592.524 137.871 594.894 136.837 594.566 133.108C594.296 130.029 594.455 126.914 594.531 123.818C594.588 121.51 594.664 121.511 598.249 121.715C598.249 125.65 598.249 129.618 598.25 133.947Z" fill="#E50A35"/>
<path d="M705.896 123.977C703.239 123.659 702.617 124.607 702.677 126.587C702.815 131.075 702.721 135.57 702.721 140.298C701.276 140.298 700.086 140.298 698.618 140.298C698.618 135.987 698.693 131.883 698.58 127.783C698.537 126.239 699.703 123.94 696.351 123.743C696.286 123.739 696.277 121.571 696.326 121.569C699.191 121.398 698.506 119.336 698.807 117.843C699.301 115.386 700.384 113.473 703.468 113.022C706.604 112.564 709.129 113.072 710.606 116.528C709.467 116.731 708.36 117.255 707.489 117.029C702.752 115.805 702.656 115.833 702.944 120.442C704.645 121.181 706.243 121.875 707.841 122.569C707.316 123.036 706.791 123.503 705.896 123.977Z" fill="#E61941"/>
<path d="M378.327 139.932C377.36 138.959 376.414 138.251 376.022 137.346C375.759 136.739 376.282 135.854 376.453 135.093C377.264 135.335 378.164 135.452 378.856 135.858C379.41 136.183 379.615 137.196 380.141 137.319C381.707 137.684 383.361 137.912 384.968 137.861C385.476 137.845 386.492 136.485 386.335 136.245C385.603 135.132 384.673 134.048 383.559 133.24C382.586 132.534 380.888 132.48 380.189 131.663C378.556 129.755 376.691 127.673 376.211 125.435C375.971 124.319 378.278 122.126 379.944 121.445C382.862 120.252 386.119 120.26 388.62 122.702C389.281 123.348 389.715 124.184 389.961 125.966C388.76 125.694 387.555 125.437 386.36 125.148C384.721 124.751 383.105 124.151 381.444 124.027C380.951 123.99 379.712 125.633 379.885 125.871C380.77 127.09 381.887 128.234 383.153 129.141C384.129 129.84 385.505 130.059 386.596 130.653C389.06 131.994 390.905 133.741 390.199 136.636C389.47 139.625 387.011 140.899 383.948 141.015C382.177 141.083 380.373 140.438 378.327 139.932Z" fill="#E6113B"/>
<path d="M496.661 140C495.383 138.634 494.37 137.444 493.357 136.253C493.602 135.839 493.847 135.424 494.092 135.01C495.189 135.44 496.314 135.822 497.377 136.312C498.702 136.922 499.939 138.052 501.283 138.144C502.343 138.218 503.893 137.264 504.465 136.369C504.766 135.897 503.642 134.368 502.794 133.692C501.87 132.955 500.507 132.681 499.361 132.158C496.095 130.67 493.128 128.563 494.515 125.014C495.189 123.291 497.851 121.611 499.974 121.072C503.768 120.109 507.012 121.346 508.754 126.357C506.858 125.817 505.73 125.511 504.613 125.174C503.108 124.719 501.487 123.661 500.138 123.898C497.55 124.353 496.958 126.027 499.095 127.76C500.126 128.596 501.483 129.139 502.76 129.684C507.748 131.812 509.49 134.367 508.091 137.629C506.84 140.545 502.695 141.813 498.09 140.668C497.683 140.567 497.313 140.342 496.661 140Z" fill="#E6103A"/>
<path d="M771.094 139.3C764.593 142.59 760.116 141.328 757.479 134.595C759.368 135.32 760.465 135.653 761.464 136.147C762.77 136.794 763.94 138.001 765.281 138.152C766.375 138.275 767.635 137.203 768.821 136.661C768.181 135.626 767.783 134.326 766.841 133.623C765.672 132.749 763.978 132.48 762.643 131.752C760.096 130.364 757.661 128.502 758.62 125.594C759.175 123.914 760.961 122.005 762.72 121.339C765.646 120.231 768.943 120.322 771.3 122.943C771.825 123.528 772.15 124.259 772.203 126.002C771.044 125.679 769.888 125.347 768.725 125.034C767.201 124.624 765.676 123.964 764.145 123.951C763.478 123.945 762.068 125.638 762.251 125.943C762.946 127.103 764.034 128.151 765.207 128.968C766.195 129.656 767.553 129.888 768.666 130.454C772.919 132.616 773.606 134.913 771.094 139.3Z" fill="#E6103A"/>
<path d="M610.978 116.897C611.533 118.23 611.776 119.465 611.937 120.288C613.816 121.187 615.467 121.978 617.118 122.768C615.602 123.37 614.086 123.972 612.073 124.771C612.073 128.658 612.073 133.184 612.073 137.999C613.804 137.778 615.165 137.604 616.641 137.415C618.283 140.207 615.501 140.329 613.9 140.825C611.229 141.651 608.761 140.935 608.256 138.301C607.656 135.169 607.907 131.912 607.61 128.723C607.436 126.854 608.977 124.211 605.222 123.644C605.018 123.613 604.924 122.99 604.779 122.642C607.877 121.631 606.617 117.026 610.978 116.897Z" fill="#E61941"/>
<path d="M521.492 137.928C522.956 138.013 524.06 138.091 525.164 138.169C524.463 138.947 523.936 140.061 523.031 140.443C519.096 142.107 516.218 140.619 515.871 136.681C515.612 133.735 515.785 130.757 515.766 127.793C515.761 127.02 516.058 126.095 515.692 125.505C514.945 124.3 513.165 123.309 513.095 122.165C513.037 121.208 514.801 120.155 515.769 119.153C516.67 118.221 517.586 117.3 519.232 115.624C519.679 118.248 519.906 119.575 520.049 120.417C522.044 121.267 523.639 121.947 525.233 122.626C523.645 123.289 522.056 123.951 519.359 125.076C519.887 128.897 520.51 133.409 521.492 137.928Z" fill="#E61941"/>
<path d="M286.48 127.405C286.479 126.663 286.654 126.151 286.446 125.911C285.472 124.787 283.555 123.723 283.58 122.669C283.608 121.545 285.463 120.476 286.469 119.346C287.331 118.379 288.12 117.358 288.942 116.361C289.273 116.523 289.603 116.685 289.934 116.847C290.12 118.201 290.306 119.555 290.402 120.255C292.576 121.253 294.251 122.022 295.925 122.79C294.221 123.367 292.517 123.944 290.239 124.716C290.239 127.803 290.252 131.383 290.234 134.963C290.222 137.137 290.793 138.566 293.752 137.721C294.32 137.559 295.112 138.04 295.801 138.225C295.361 138.893 295.1 139.835 294.45 140.186C290.28 142.437 286.793 140.715 286.545 136.269C286.388 133.439 286.493 130.597 286.48 127.405Z" fill="#E6103A"/>
<path d="M782.642 133.262C783.244 135.653 783.845 137.672 784.663 140.418C784.003 140.507 782.343 141.163 781.092 140.766C780.103 140.451 779.03 138.855 779.002 137.806C778.797 130.324 778.768 122.834 778.943 115.352C778.963 114.521 780.623 113.723 781.523 112.909C781.896 113.137 782.269 113.365 782.642 113.593C782.642 120.026 782.642 126.458 782.642 133.262Z" fill="#E50531"/>
<path d="M350.377 133.303C350.378 129.968 350.302 127.007 350.428 124.052C350.467 123.147 351.06 122.262 351.399 121.367C352.485 121.708 353.57 122.048 355.08 122.522C356.314 122.036 358.074 121.343 359.834 120.65C360.187 120.957 360.539 121.263 360.892 121.57C360.103 122.419 359.447 123.832 358.502 124.015C355.187 124.654 354.177 126.282 354.38 129.215C354.629 132.8 354.439 136.411 354.439 140.276C353.129 140.276 351.946 140.276 350.377 140.276C350.377 137.984 350.377 135.831 350.377 133.303Z" fill="#E61941"/>
<path d="M533.565 121.769C534.264 122.204 534.912 122.67 535.304 122.534C536.833 122.002 538.282 121.279 539.76 120.627C540.136 120.949 540.511 121.272 540.886 121.594C540.108 122.43 539.456 123.832 538.529 124.001C535.194 124.61 534.168 126.252 534.355 129.184C534.585 132.765 534.41 136.367 534.41 140.302C533.068 140.361 531.889 140.413 530.365 140.48C530.365 134.533 530.403 128.902 530.346 123.273C530.323 121.059 531.63 121.035 533.565 121.769Z" fill="#E61740"/>
<path d="M814.334 128.761C814.334 126.204 814.334 124.024 814.334 121.045C816.085 121.684 817.35 122.145 818.839 122.688C820.068 122.163 821.815 121.417 823.562 120.671C823.947 120.993 824.331 121.316 824.715 121.638C823.94 122.454 823.291 123.811 822.365 123.989C819.096 124.62 817.863 126.179 818.101 129.16C818.327 131.982 818.028 134.835 818.186 137.664C818.321 140.093 817.417 141.056 814.334 140.151C814.334 136.567 814.334 132.854 814.334 128.761Z" fill="#E50834"/>
<path d="M657.357 121.804C656.76 122.777 656.212 123.912 655.492 124.01C651.842 124.503 650.951 126.402 651.171 129.458C651.42 132.916 651.228 136.4 651.228 140.234C649.859 140.317 648.709 140.387 647.14 140.482C647.14 134.471 647.106 128.814 647.189 123.159C647.198 122.543 648.015 121.376 648.232 121.418C649.257 121.617 650.204 122.147 650.977 122.474C653.006 122.158 655.166 121.823 657.357 121.804Z" fill="#E61941"/>
<path d="M747.448 139.027C747.441 133.033 747.441 127.37 747.441 121.708C747.831 121.424 748.22 121.14 748.609 120.856C749.572 121.718 751.326 122.55 751.368 123.447C751.626 128.976 751.497 134.519 751.497 141.065C749.733 140.32 748.593 139.839 747.448 139.027Z" fill="#E61C43"/>
<path d="M544.943 126.506C544.943 124.723 544.943 123.31 544.943 121.783C547.552 120.834 549.11 120.904 549.047 123.953C548.939 129.243 549.017 134.536 549.017 140.208C547.78 140.336 546.616 140.458 544.943 140.632C544.943 135.823 544.943 131.349 544.943 126.506Z" fill="#E61C43"/>
<path d="M367.329 121.266C368.133 121.825 368.956 122.364 368.965 122.914C369.06 128.659 369.024 134.406 369.024 140.349C367.67 140.349 366.597 140.349 365.572 140.349C365.361 140.075 365.077 139.877 365.074 139.676C365.019 134.42 364.898 129.161 365.052 123.91C365.079 123.009 366.301 122.137 367.329 121.266Z" fill="#E61C43"/>
<path d="M487.301 131.035C487.301 134.254 487.301 137.093 487.301 140.281C486.014 140.362 484.828 140.436 483.408 140.525C483.408 134.076 483.408 127.943 483.408 121.714C486.09 120.733 487.498 121.182 487.326 124.07C487.196 126.259 487.301 128.459 487.301 131.035Z" fill="#E61C43"/>
<path d="M831.251 121.349C831.973 121.851 832.662 122.326 832.668 122.809C832.743 128.587 832.717 134.367 832.717 140.281C831.329 140.281 830.274 140.281 828.938 140.281C828.938 134.436 828.878 128.785 829.024 123.139C829.04 122.522 830.247 121.929 831.251 121.349Z" fill="#E50531"/>
<path d="M369.321 115.927C368.077 116.553 366.917 116.907 365.757 117.26C365.422 116.36 364.726 115.405 364.877 114.578C364.982 114.001 366.655 113.05 366.923 113.213C367.91 113.813 368.602 114.808 369.321 115.927Z" fill="#E6143E"/>
<path d="M751.759 114.773C751.004 115.922 750.29 116.885 749.317 117.529C749.118 117.66 747.467 116.672 747.349 116.063C747.188 115.237 747.86 114.279 748.175 113.377C749.353 113.743 750.531 114.108 751.759 114.773Z" fill="#E6103A"/>
<path d="M832.605 113.739C833.803 115.932 833.221 117.407 830.801 117.517C830.038 117.552 828.5 116.101 828.516 115.35C828.563 113.089 830.209 112.633 832.605 113.739Z" fill="#E61740"/>
<path d="M546.913 117.62C544.234 116.811 543.975 115.245 545.383 113.73C545.839 113.239 548.15 113.308 548.628 113.841C550.054 115.434 549.547 116.925 546.913 117.62Z" fill="#E6103A"/>
<path d="M486.961 113.709C487.978 115.777 487.783 117.396 485.246 117.52C484.508 117.556 483.051 116.175 483.018 115.405C482.918 113.07 484.563 112.686 486.961 113.709Z" fill="#E6143E"/>
</svg>
